<svg width="68" height="68" viewBox="0 0 68 68" fill="none" xmlns="http://www.w3.org/2000/svg">
<rect width="68" height="68" rx="5" fill="#EFF6FE"/>
<path d="M51.1634 14.0017C50.0184 14.0017 48.9934 14.6833 48.55 15.7401L46 21.8317C45.24 21.1167 44.2484 20.6651 43.1666 20.6651H18.1666C15.87 20.6651 14 22.5351 14 24.8317V49.8317C14 52.1283 15.87 53.9983 18.1666 53.9983H43.1666C45.4633 53.9983 47.3333 52.1283 47.3333 49.8317V31.5901L53.7333 18.0884C53.9083 17.7168 53.9999 17.3034 53.9999 16.8351C54 15.2734 52.7266 14.0017 51.1634 14.0017ZM45.6666 49.8317C45.6666 51.2101 44.545 52.3317 43.1666 52.3317H18.1666C16.7883 52.3317 15.6666 51.2101 15.6666 49.8317V24.8317C15.6666 23.4534 16.7883 22.3317 18.1666 22.3317H43.1666C44.045 22.3317 44.8316 22.8083 45.2816 23.5483L42.3333 30.595V26.4984C42.3333 26.0384 41.9599 25.665 41.4999 25.665H19.8334C19.3734 25.665 19 26.0384 19 26.4984V33.165C19 33.625 19.3734 33.9984 19.8334 33.9984H40.9084L40.21 35.665H33.1666C32.7066 35.665 32.3333 36.0383 32.3333 36.4984V46.4983C32.3333 46.52 32.3433 46.5383 32.3449 46.56C31.6599 47.1684 31.2399 47.3716 31.2099 47.3834C30.9466 47.4817 30.7499 47.7034 30.6866 47.9783C30.6232 48.2584 30.7066 48.5517 30.9099 48.755C32.1166 49.9616 33.7816 50.4216 35.4099 50.4216C37.4916 50.4216 39.5099 49.6683 40.4199 48.755C41.7299 47.445 42.6899 44.8484 41.9649 42.9133L45.6666 35.1067V49.8317H45.6666ZM35.1434 45.0567C35.3734 44.3001 35.5917 43.5833 36.255 42.9201C37.4334 41.7417 38.8984 41.7417 40.0766 42.9201C41.1316 43.9751 40.3266 46.4917 39.2433 47.5751C38.3399 48.4767 35.1283 49.3467 32.9733 48.2201C33.2599 47.9967 33.5899 47.7084 33.9633 47.3351C34.66 46.6367 34.9066 45.8334 35.1434 45.0567ZM34 43.3234V37.3334H39.5134L38.235 40.3868C37.1216 40.3668 36.0034 40.8151 35.075 41.7451C34.5566 42.2634 34.235 42.8017 34 43.3234ZM39.88 40.7767L42.1234 35.4151L43.3834 36.0334L40.84 41.3968C40.5316 41.1467 40.2134 40.9334 39.88 40.7767ZM40.6666 27.3317V32.3317H20.6666V27.3317H40.6666ZM52.225 17.3784L44.095 34.5284L42.7666 33.8768L46.9916 23.7801L50.0866 16.3835C50.2683 15.9485 50.6916 15.6685 51.165 15.6685C51.8084 15.6685 52.3316 16.1919 52.3316 16.8919C52.3316 17.0584 52.295 17.2301 52.225 17.3784Z" fill="#4971FF"/>
<path d="M28.1666 35.665H19.8334C19.3734 35.665 19 36.0384 19 36.4984V48.165C19 48.625 19.3734 48.9984 19.8334 48.9984H28.1667C28.6267 48.9984 29.0001 48.625 29.0001 48.165V36.4984C29 36.0384 28.6266 35.665 28.1666 35.665ZM27.3334 47.3317H20.6666V37.3317H27.3333V47.3317H27.3334Z" fill="#4971FF"/>
</svg>
