<svg width="68" height="68" viewBox="0 0 68 68" fill="none" xmlns="http://www.w3.org/2000/svg">
<rect width="68" height="68" rx="5" fill="#EFF6FE"/>
<path d="M50.6666 14H17.3334C15.4933 14.0022 14.0022 15.4933 14 17.3334V50.6667C14.0022 52.5067 15.4933 53.9978 17.3334 54H50.6667C52.5067 53.9978 53.9978 52.5067 54.0001 50.6666V17.3334C53.9978 15.4933 52.5067 14.0022 50.6666 14ZM52.6666 50.6666C52.6666 51.7712 51.7713 52.6666 50.6666 52.6666H17.3334C16.2288 52.6666 15.3334 51.7713 15.3334 50.6666V20.6666H52.6667V50.6666H52.6666ZM52.6666 19.3334H15.3334V17.3334C15.3334 16.2288 16.2288 15.3334 17.3334 15.3334H50.6667C51.7713 15.3334 52.6667 16.2288 52.6667 17.3334V19.3334H52.6666Z" fill="#4971FF"/>
<path d="M18.6663 16.6666H17.9996C17.6314 16.6666 17.333 16.9651 17.333 17.3333C17.333 17.7015 17.6314 18 17.9996 18H18.6663C19.0345 18 19.3329 17.7015 19.3329 17.3333C19.3329 16.9651 19.0345 16.6666 18.6663 16.6666Z" fill="#4971FF"/>
<path d="M21.587 16.7199C21.4261 16.6466 21.2412 16.6466 21.0804 16.7199C20.9996 16.7538 20.9252 16.8011 20.8604 16.8599C20.6025 17.1228 20.6025 17.5437 20.8604 17.8066C20.9252 17.8654 20.9996 17.9127 21.0804 17.9466C21.2418 18.0177 21.4256 18.0177 21.587 17.9466C21.6678 17.9127 21.7422 17.8654 21.807 17.8066C22.0648 17.5437 22.0648 17.1228 21.807 16.8599C21.7422 16.8011 21.6678 16.7538 21.587 16.7199Z" fill="#4971FF"/>
<path d="M24.2554 16.7138C24.0052 16.61 23.7171 16.6677 23.5264 16.8601C23.4676 16.9249 23.4202 16.9993 23.3864 17.0801C23.3152 17.2415 23.3152 17.4253 23.3864 17.5867C23.4202 17.6675 23.4676 17.7419 23.5264 17.8067C23.7893 18.0645 24.2101 18.0645 24.473 17.8067C24.5319 17.7419 24.5792 17.6675 24.613 17.5867C24.6504 17.5076 24.6687 17.4208 24.6664 17.3333C24.668 17.0626 24.5055 16.8176 24.2554 16.7138Z" fill="#4971FF"/>
<path d="M50.0003 16.6666H27.3336C26.9654 16.6666 26.667 16.9651 26.667 17.3333C26.667 17.7015 26.9654 17.9999 27.3336 17.9999H50.0003C50.3685 17.9999 50.6669 17.7015 50.6669 17.3333C50.6669 16.9651 50.3685 16.6666 50.0003 16.6666Z" fill="#4971FF"/>
<path d="M24.2358 45.7466C24.2661 45.7745 24.2992 45.7994 24.3345 45.8206C26.8439 48.4886 30.3444 50.0011 34.0071 49.9999C37.6699 49.9987 41.1693 48.4841 43.6771 45.8146C43.7103 45.7953 43.7415 45.773 43.7705 45.748C43.7924 45.7172 43.8116 45.6847 43.8279 45.6506C48.5061 40.5758 48.5061 32.7601 43.8279 27.6853L43.8252 27.684C43.8089 27.6499 43.7897 27.6173 43.7679 27.5866C43.7375 27.5583 43.7042 27.5333 43.6686 27.5119C41.1602 24.8462 37.6623 23.3346 34.0019 23.3346C30.3415 23.3346 26.8436 24.8462 24.3353 27.5119C24.2996 27.5333 24.2664 27.5583 24.236 27.5866C24.2141 27.6173 24.1949 27.6499 24.1786 27.684C19.5004 32.7587 19.5004 40.5745 24.1786 45.6493C24.1948 45.6833 24.2139 45.7159 24.2358 45.7466ZM37.6371 48.098C38.6619 46.8604 39.4332 45.4333 39.9072 43.898V43.8959C40.7446 44.2883 41.5348 44.7744 42.2625 45.3452C40.949 46.6012 39.3675 47.5425 37.6371 48.098ZM43.1825 44.3766C42.2954 43.6649 41.3218 43.068 40.2852 42.6C40.7139 40.876 40.9481 39.1094 40.9832 37.3333H45.9665C45.8279 39.9211 44.8507 42.3934 43.1825 44.3766ZM45.9665 36H40.9832C40.948 34.2239 40.7139 32.4572 40.2852 30.7333C41.3218 30.2658 42.2953 29.6693 43.1825 28.958C44.8504 30.9408 45.8276 33.4126 45.9665 36ZM42.2625 27.986C41.5349 28.5568 40.7447 29.043 39.9072 29.4353C39.4336 27.8993 38.6622 26.4715 37.6372 25.2333C39.3675 25.7888 40.949 26.7301 42.2625 27.986ZM34.6671 24.76C36.3011 25.188 37.7464 27.1526 38.6572 29.934C37.3706 30.3776 36.0268 30.6333 34.6671 30.6933V24.76ZM34.6671 32.0273C36.1505 31.9718 37.6182 31.7024 39.0245 31.2273C39.4027 32.7913 39.6125 34.3913 39.6505 36H34.6671V32.0273ZM34.6671 37.3333H39.6505C39.6125 38.9415 39.4026 40.5411 39.0245 42.1047C37.6181 41.6301 36.1505 41.3611 34.6671 41.306V37.3333ZM34.6671 42.64C36.0268 42.7002 37.3706 42.9562 38.6572 43.4C37.7464 46.1813 36.3011 48.146 34.6671 48.574V42.64ZM25.7385 45.3433C26.4664 44.774 27.2565 44.289 28.0938 43.898V43.896C28.5677 45.4313 29.339 46.8584 30.3638 48.096C28.6336 47.5405 27.052 46.5993 25.7385 45.3433ZM33.3339 48.5733C31.6999 48.1454 30.2546 46.1807 29.3439 43.3994C30.6304 42.9558 31.9743 42.7001 33.3339 42.6401V48.5733ZM33.3339 41.306C31.8505 41.3615 30.3829 41.6309 28.9765 42.106C28.5983 40.5419 28.3885 38.942 28.3505 37.3333H33.3339V41.306ZM33.3339 36H28.3505C28.3886 34.3918 28.5984 32.7922 28.9765 31.2287C30.3829 31.7033 31.8505 31.9722 33.3339 32.0273V36ZM33.3339 24.7593V30.6933C31.9743 30.633 30.6304 30.3771 29.3439 29.9333C30.2545 27.152 31.6998 25.1873 33.3339 24.7593ZM30.3639 25.2313C29.3386 26.4701 28.5673 27.8986 28.0939 29.4353V29.4333C27.2564 29.0409 26.4662 28.5548 25.7386 27.9839C27.052 26.728 28.6336 25.7868 30.3639 25.2313ZM24.8185 28.9566C25.7057 29.6683 26.6792 30.2653 27.7158 30.7333C27.2871 32.4573 27.0529 34.2238 27.0179 35.9999H22.0345C22.1731 33.4122 23.1504 30.9398 24.8185 28.9566ZM27.0179 37.3333C27.053 39.1094 27.2871 40.8761 27.7158 42.6C26.6793 43.0676 25.7057 43.664 24.8185 44.3753C23.1506 42.3925 22.1734 39.9206 22.0345 37.3333H27.0179V37.3333Z" fill="#4971FF"/>
</svg>
