<svg width="203" height="62" viewBox="0 0 203 62" fill="none" xmlns="http://www.w3.org/2000/svg">
<path d="M47.244 22.8296C47.2785 25.8604 44.87 28.2573 42.6229 28.4876C41.1281 28.6405 39.5971 28.743 38.1666 29.1623C36.188 29.7426 34.3705 30.7235 32.9482 32.3415C31.3003 34.218 30.3783 36.29 30.2171 38.8982C30.059 41.4668 29.1898 43.982 26.406 44.9045C22.1342 46.3221 17.3552 44.2816 17.4095 39.1236C17.4326 36.9933 18.9158 34.7241 21.2848 33.8315C22.5556 33.3523 23.7737 33.4122 25.0215 33.2339C28.7618 32.7025 31.7167 30.8985 33.5341 27.4247C34.405 25.761 34.9039 23.9917 34.8264 22.0726C34.7558 20.305 33.9853 18.2408 32.9563 16.8705C31.2197 14.5572 29.4829 13.2705 26.8572 12.5246C24.6578 11.8986 22.363 11.9396 20.0632 12.7012C18.1157 13.3462 16.6621 14.5241 15.2941 15.948C13.8421 17.4619 13.0651 19.2674 12.945 21.3757C12.8297 23.3988 12.3671 25.3448 10.9366 26.8049C9.47145 28.3013 7.68529 28.8612 5.51064 28.5694C3.5928 28.3125 2.27253 27.4451 1.13829 25.9503C-0.565546 23.7049 -0.353183 20.5589 1.75233 18.6272C3.22076 17.2789 4.80605 16.7128 6.93792 16.5299C11.0024 16.1798 15.9147 13.1822 16.858 8.96714C17.0638 8.04464 17.2844 7.10956 17.3453 6.17129C17.5116 3.57101 19.0277 1.14417 21.6764 0.374645C25.657 -0.781217 28.6992 0.745215 29.8565 4.8467C30.0524 5.54212 30.2254 6.26119 30.2779 6.98025C30.5315 10.4983 32.2402 13.0166 35.1772 14.8095C37.0605 15.9591 39.0309 16.3486 41.2286 16.5741C44.1506 16.8721 47.1138 19.0798 47.244 22.8296Z" fill="white"/>
<path d="M0.0136719 38.9249C0.0136719 35.8941 2.45008 33.5224 4.70045 33.3157C6.19687 33.1787 7.72949 33.0936 9.16499 32.6883C11.1503 32.1284 12.9793 31.1681 14.4197 29.5643C16.089 27.7068 17.0356 25.6443 17.2265 23.0376C17.4142 20.4704 18.313 17.9648 21.1066 17.0722C25.3951 15.7003 30.1509 17.7929 30.0358 22.9493C29.9881 25.0797 28.4784 27.3332 26.0996 28.2003C24.8239 28.6655 23.6056 28.593 22.3561 28.7571C18.6094 29.249 15.633 31.0215 13.7761 34.4749C12.8854 36.1291 12.3669 37.892 12.4212 39.8127C12.4722 41.5803 13.1785 43.1082 13.9802 44.6095C15.3581 47.1926 17.6611 48.6701 20.2786 49.4459C22.4714 50.0956 24.7662 50.0783 27.0743 49.3417C29.03 48.7174 30.4967 47.5567 31.8811 46.1454C33.3512 44.6473 34.1497 42.8513 34.2929 40.7429C34.4312 38.7213 34.9169 36.7818 36.3637 35.3359C37.847 33.8551 39.6382 33.3143 41.8111 33.6297C43.7256 33.9072 45.0361 34.7887 46.1523 36.2961C47.8298 38.5591 47.5795 41.7033 45.4525 43.6113C43.9676 44.9438 42.3775 45.4925 40.2422 45.6533C36.1744 45.9594 31.2277 48.905 30.235 53.109C30.0176 54.03 29.7872 54.9618 29.7163 55.9001C29.5189 58.4989 27.9764 60.9099 25.3176 61.651C21.324 62.7643 18.2999 61.2048 17.1903 57.0921C17.0026 56.3953 16.838 55.673 16.7936 54.954C16.5796 51.4344 14.9021 48.8972 11.9866 47.0727C10.1165 45.9026 8.15092 45.4925 5.95488 45.2435C3.03613 44.9155 0.0992753 42.6763 0.0136719 38.9249Z" fill="white"/>
<path d="M85.2193 34.4581V39.8868H60.0498V35.5685L75.8424 16.5269H60.3788V11.0981H84.6024V15.4164L68.8509 34.4581H85.2193ZM108.452 33.7178H95.0856L92.5357 39.8868H85.7087L98.5402 11.0981H105.121L117.993 39.8868H111.002L108.452 33.7178ZM106.354 28.6592L101.789 17.6373L97.2242 28.6592H106.354ZM133.441 11.0981C135.991 11.0981 138.198 11.5231 140.063 12.3731C141.955 13.223 143.408 14.4294 144.422 15.9922C145.437 17.555 145.944 19.4057 145.944 21.5443C145.944 23.6554 145.437 25.5061 144.422 27.0964C143.408 28.6592 141.955 29.8655 140.063 30.7155C138.198 31.5381 135.991 31.9493 133.441 31.9493H127.642V39.8868H120.98V11.0981H133.441ZM133.071 26.5206C135.073 26.5206 136.594 26.0957 137.636 25.2457C138.678 24.3684 139.199 23.1346 139.199 21.5443C139.199 19.9267 138.678 18.6929 137.636 17.8429C136.594 16.9655 135.073 16.5269 133.071 16.5269H127.642V26.5206H133.071ZM155.86 16.5269H146.648V11.0981H171.735V16.5269H162.523V39.8868H155.86V16.5269ZM192.834 33.7178H179.468L176.918 39.8868H170.091L182.922 11.0981H189.503L202.375 39.8868H195.384L192.834 33.7178ZM190.736 28.6592L186.171 17.6373L181.606 28.6592H190.736Z" fill="white"/>
<path d="M61.4083 47.2821H58.5381V45.5908H66.3542V47.2821H63.484V54.5601H61.4083V47.2821ZM77.7473 52.8943V54.5601H70.8025V45.5908H77.5808V47.2565H72.8655V49.2041H77.0298V50.8186H72.8655V52.8943H77.7473ZM86.9979 54.7138C86.0838 54.7138 85.2553 54.5173 84.5121 54.1244C83.7774 53.7229 83.1965 53.1719 82.7695 52.4715C82.3508 51.7624 82.1417 50.9639 82.1417 50.0754C82.1417 49.187 82.3508 48.3925 82.7695 47.6922C83.1965 46.9831 83.7774 46.4321 84.5121 46.0392C85.2553 45.6377 86.0882 45.437 87.0107 45.437C87.788 45.437 88.4884 45.5736 89.1121 45.847C89.7441 46.1205 90.2738 46.5133 90.701 47.0259L89.3684 48.2559C88.7618 47.5555 88.0102 47.2052 87.1133 47.2052C86.5579 47.2052 86.0626 47.329 85.6269 47.5768C85.1912 47.8159 84.8494 48.1534 84.6018 48.5891C84.3625 49.0247 84.2431 49.5201 84.2431 50.0754C84.2431 50.6307 84.3625 51.1261 84.6018 51.5618C84.8494 51.9974 85.1912 52.339 85.6269 52.5868C86.0626 52.8259 86.5579 52.9456 87.1133 52.9456C88.0102 52.9456 88.7618 52.5912 89.3684 51.8821L90.701 53.1122C90.2738 53.6332 89.7441 54.0304 89.1121 54.3038C88.4799 54.5772 87.7752 54.7138 86.9979 54.7138ZM103.66 45.5908V54.5601H101.584V50.8827H97.5098V54.5601H95.4341V45.5908H97.5098V49.1272H101.584V45.5908H103.66ZM117.34 45.5908V54.5601H115.636L111.164 49.1144V54.5601H109.114V45.5908H110.831L115.29 51.0364V45.5908H117.34ZM127.137 54.7138C126.206 54.7138 125.365 54.5132 124.613 54.1116C123.87 53.7101 123.285 53.1591 122.858 52.4587C122.439 51.7496 122.23 50.9552 122.23 50.0754C122.23 49.1956 122.439 48.4054 122.858 47.705C123.285 46.9959 123.87 46.4408 124.613 46.0392C125.365 45.6377 126.206 45.437 127.137 45.437C128.068 45.437 128.906 45.6377 129.649 46.0392C130.392 46.4408 130.977 46.9959 131.404 47.705C131.831 48.4054 132.045 49.1956 132.045 50.0754C132.045 50.9552 131.831 51.7496 131.404 52.4587C130.977 53.1591 130.392 53.7101 129.649 54.1116C128.906 54.5132 128.068 54.7138 127.137 54.7138ZM127.137 52.9456C127.667 52.9456 128.145 52.8259 128.572 52.5868C129 52.339 129.333 51.9974 129.572 51.5618C129.82 51.1261 129.943 50.6307 129.943 50.0754C129.943 49.5201 129.82 49.0247 129.572 48.5891C129.333 48.1534 129 47.8159 128.572 47.5768C128.145 47.329 127.667 47.2052 127.137 47.2052C126.608 47.2052 126.129 47.329 125.702 47.5768C125.275 47.8159 124.938 48.1534 124.69 48.5891C124.451 49.0247 124.331 49.5201 124.331 50.0754C124.331 50.6307 124.451 51.1261 124.69 51.5618C124.938 51.9974 125.275 52.339 125.702 52.5868C126.129 52.8259 126.608 52.9456 127.137 52.9456ZM136.936 45.5908H139.012V52.8687H143.51V54.5601H136.936V45.5908ZM152.194 54.7138C151.263 54.7138 150.422 54.5132 149.67 54.1116C148.927 53.7101 148.342 53.1591 147.915 52.4587C147.496 51.7496 147.287 50.9552 147.287 50.0754C147.287 49.1956 147.496 48.4054 147.915 47.705C148.342 46.9959 148.927 46.4408 149.67 46.0392C150.422 45.6377 151.263 45.437 152.194 45.437C153.125 45.437 153.963 45.6377 154.706 46.0392C155.449 46.4408 156.034 46.9959 156.461 47.705C156.888 48.4054 157.102 49.1956 157.102 50.0754C157.102 50.9552 156.888 51.7496 156.461 52.4587C156.034 53.1591 155.449 53.7101 154.706 54.1116C153.963 54.5132 153.125 54.7138 152.194 54.7138ZM152.194 52.9456C152.724 52.9456 153.202 52.8259 153.629 52.5868C154.057 52.339 154.39 51.9974 154.629 51.5618C154.877 51.1261 155.001 50.6307 155.001 50.0754C155.001 49.5201 154.877 49.0247 154.629 48.5891C154.39 48.1534 154.057 47.8159 153.629 47.5768C153.202 47.329 152.724 47.2052 152.194 47.2052C151.665 47.2052 151.186 47.329 150.759 47.5768C150.332 47.8159 149.995 48.1534 149.747 48.5891C149.508 49.0247 149.388 49.5201 149.388 50.0754C149.388 50.6307 149.508 51.1261 149.747 51.5618C149.995 51.9974 150.332 52.339 150.759 52.5868C151.186 52.8259 151.665 52.9456 152.194 52.9456ZM168.054 49.9345H169.95V53.5735C169.463 53.9407 168.9 54.2226 168.259 54.4191C167.618 54.6157 166.974 54.7138 166.324 54.7138C165.393 54.7138 164.556 54.5173 163.813 54.1244C163.07 53.7229 162.485 53.1719 162.057 52.4715C161.639 51.7624 161.429 50.9639 161.429 50.0754C161.429 49.187 161.639 48.3925 162.057 47.6922C162.485 46.9831 163.074 46.4321 163.826 46.0392C164.577 45.6377 165.423 45.437 166.363 45.437C167.149 45.437 167.862 45.5695 168.502 45.8342C169.143 46.099 169.681 46.4834 170.117 46.9874L168.784 48.2175C168.144 47.5427 167.371 47.2052 166.465 47.2052C165.893 47.2052 165.385 47.3249 164.94 47.564C164.496 47.8031 164.15 48.1406 163.902 48.5763C163.655 49.0119 163.531 49.5116 163.531 50.0754C163.531 50.6307 163.655 51.1261 163.902 51.5618C164.15 51.9974 164.492 52.339 164.928 52.5868C165.372 52.8259 165.876 52.9456 166.44 52.9456C167.038 52.9456 167.576 52.8175 168.054 52.5612V49.9345ZM175.21 45.5908H177.286V54.5601H175.21V45.5908ZM189.691 52.8943V54.5601H182.746V45.5908H189.524V47.2565H184.809V49.2041H188.973V50.8186H184.809V52.8943H189.691ZM197.621 54.7138C196.912 54.7138 196.224 54.6198 195.558 54.4319C194.9 54.2354 194.371 53.9835 193.969 53.676L194.674 52.1127C195.058 52.3946 195.515 52.6209 196.045 52.7918C196.575 52.9628 197.104 53.0481 197.634 53.0481C198.223 53.0481 198.659 52.9628 198.941 52.7918C199.223 52.6125 199.364 52.3775 199.364 52.0871C199.364 51.8736 199.278 51.6984 199.107 51.5618C198.945 51.4165 198.731 51.3012 198.467 51.2158C198.21 51.1304 197.86 51.0364 197.416 50.9339C196.732 50.7717 196.173 50.6092 195.737 50.447C195.302 50.2848 194.926 50.0242 194.61 49.6654C194.302 49.3066 194.149 48.8282 194.149 48.2303C194.149 47.7093 194.289 47.2393 194.571 46.8208C194.853 46.3937 195.276 46.0564 195.84 45.8086C196.412 45.5608 197.108 45.437 197.928 45.437C198.501 45.437 199.06 45.5054 199.607 45.642C200.154 45.7786 200.632 45.9752 201.042 46.2314L200.401 47.8075C199.573 47.3377 198.744 47.1027 197.916 47.1027C197.335 47.1027 196.903 47.1968 196.622 47.3846C196.348 47.5725 196.211 47.8203 196.211 48.1278C196.211 48.4353 196.37 48.666 196.686 48.8197C197.01 48.965 197.501 49.1101 198.159 49.2554C198.843 49.4176 199.402 49.58 199.838 49.7423C200.273 49.9045 200.645 50.1608 200.952 50.5111C201.268 50.8614 201.426 51.3355 201.426 51.9333C201.426 52.4459 201.281 52.9156 200.991 53.3428C200.709 53.7613 200.282 54.0945 199.71 54.3422C199.137 54.59 198.441 54.7138 197.621 54.7138Z" fill="white"/>
</svg>
