<svg width="60" height="60" viewBox="0 0 60 60" fill="none" xmlns="http://www.w3.org/2000/svg">
<g clip-path="url(#clip0)">
<path d="M30.2197 9.16687C25.7758 9.12728 21.4932 10.8297 18.2892 13.9093C15.0852 16.989 13.2147 21.201 13.0785 25.643C12.9713 29.3029 14.0633 32.8976 16.1882 35.8795C18.4351 39.0942 19.6213 42.9306 19.581 46.8525V51.3722C19.5809 51.4914 19.6069 51.6093 19.6571 51.7174C19.7073 51.8256 19.7805 51.9215 19.8716 51.9984L22.8547 54.5217V57.5991C22.8555 58.2358 23.1089 58.8463 23.5593 59.2965C24.0097 59.7466 24.6203 59.9996 25.2571 60H34.7437C35.3804 59.9994 35.9908 59.7462 36.441 59.296C36.8912 58.8457 37.1444 58.2353 37.1451 57.5986V54.5212L40.1282 51.998C40.2193 51.921 40.2925 51.8251 40.3427 51.7169C40.3929 51.6088 40.4189 51.491 40.4188 51.3717V46.8506C40.4198 42.8719 41.6416 38.9893 43.9194 35.7272C45.6664 33.2025 46.694 30.2502 46.892 27.1864C47.0901 24.1226 46.4512 21.0626 45.0438 18.334C43.6364 15.6054 41.5134 13.3108 38.9022 11.6961C36.2909 10.0813 33.2897 9.20702 30.2197 9.16687ZM36.0247 53.3231H23.9779L21.6088 51.3197H38.3938L36.0247 53.3231ZM38.7787 49.6791H21.2221V47.6719H38.7787V49.6791ZM35.5049 57.6009C35.5047 57.8026 35.4244 57.996 35.2818 58.1386C35.1392 58.2812 34.9458 58.3615 34.7441 58.3617H25.2571C25.0554 58.3615 24.862 58.2812 24.7194 58.1386C24.5768 57.996 24.4966 57.8026 24.4963 57.6009V54.9637H35.5044L35.5049 57.6009ZM42.5713 34.7925C40.2629 38.1002 38.9521 42.0008 38.7946 46.0312H21.2071C21.094 42.0498 19.814 38.1892 17.526 34.9289C15.6085 32.2365 14.6229 28.9915 14.7191 25.6875C14.8392 21.709 16.5006 17.9328 19.3526 15.1561C22.2045 12.3795 26.0238 10.8197 30.0041 10.8061H30.1986C32.9711 10.842 35.6816 11.6312 38.0401 13.0892C40.3985 14.5472 42.316 16.6191 43.5873 19.0832C44.8586 21.5472 45.4359 24.3107 45.2574 27.0776C45.0788 29.8446 44.1511 32.5109 42.5737 34.7911L42.5713 34.7925Z" fill="#4971FF"/>
<path d="M39.0206 26.101C38.7959 25.1759 38.4309 24.2906 37.9383 23.476L39.0136 22.4002C39.0898 22.324 39.1503 22.2336 39.1916 22.1341C39.2328 22.0345 39.2541 21.9278 39.2541 21.8201C39.2541 21.7123 39.2328 21.6057 39.1916 21.5061C39.1503 21.4066 39.0898 21.3162 39.0136 21.24L37.0613 19.2877C36.9851 19.2114 36.8947 19.151 36.7951 19.1097C36.6956 19.0684 36.5889 19.0472 36.4812 19.0472C36.3734 19.0472 36.2667 19.0684 36.1672 19.1097C36.0677 19.151 35.9772 19.2114 35.9011 19.2877L34.8319 20.3569C34.0168 19.8599 33.1302 19.4911 32.2031 19.2633V17.7544C32.2031 17.5368 32.1167 17.3282 31.9629 17.1743C31.809 17.0205 31.6004 16.9341 31.3828 16.9341H28.6195C28.402 16.9341 28.1933 17.0205 28.0395 17.1743C27.8856 17.3282 27.7992 17.5368 27.7992 17.7544V19.2633C26.8713 19.4909 25.9839 19.8597 25.1681 20.3569L24.0984 19.2872C24.0223 19.211 23.9319 19.1505 23.8323 19.1092C23.7328 19.068 23.6261 19.0467 23.5184 19.0467C23.4106 19.0467 23.3039 19.068 23.2044 19.1092C23.1048 19.1505 23.0144 19.211 22.9383 19.2872L20.9859 21.2396C20.9097 21.3157 20.8492 21.4061 20.808 21.5057C20.7667 21.6052 20.7454 21.7119 20.7454 21.8196C20.7454 21.9274 20.7667 22.0341 20.808 22.1336C20.8492 22.2331 20.9097 22.3236 20.9859 22.3997L22.0612 23.4755C21.5686 24.2901 21.2036 25.1754 20.9789 26.1005H19.4531C19.2356 26.1005 19.0269 26.1869 18.8731 26.3408C18.7192 26.4946 18.6328 26.7032 18.6328 26.9208V29.6817C18.6328 29.8993 18.7192 30.1079 18.8731 30.2618C19.0269 30.4156 19.2356 30.5021 19.4531 30.5021H20.992C21.2198 31.4215 21.5865 32.3009 22.0795 33.1097L20.9859 34.2033C20.9097 34.2794 20.8492 34.3699 20.808 34.4694C20.7667 34.5689 20.7454 34.6756 20.7454 34.7834C20.7454 34.8911 20.7667 34.9978 20.808 35.0974C20.8492 35.1969 20.9097 35.2873 20.9859 35.3635L22.9383 37.3158C23.095 37.4642 23.3026 37.5468 23.5184 37.5468C23.7341 37.5468 23.9417 37.4642 24.0984 37.3158L25.1981 36.2161C26.005 36.704 26.8812 37.0665 27.7969 37.2914V38.8481C27.7969 39.0657 27.8833 39.2744 28.0371 39.4282C28.191 39.582 28.3996 39.6685 28.6172 39.6685H31.3786C31.5962 39.6685 31.8048 39.582 31.9586 39.4282C32.1125 39.2744 32.1989 39.0657 32.1989 38.8481V37.2914C33.1154 37.0668 33.9924 36.7042 34.8 36.2161L35.8997 37.3158C35.9758 37.392 36.0663 37.4525 36.1658 37.4938C36.2653 37.535 36.372 37.5563 36.4798 37.5563C36.5875 37.5563 36.6942 37.535 36.7937 37.4938C36.8933 37.4525 36.9837 37.392 37.0598 37.3158L39.0122 35.3635C39.0884 35.2873 39.1489 35.1969 39.1902 35.0974C39.2314 34.9978 39.2527 34.8911 39.2527 34.7834C39.2527 34.6756 39.2314 34.5689 39.1902 34.4694C39.1489 34.3699 39.0884 34.2794 39.0122 34.2033L37.9219 33.1097C38.4149 32.301 38.7816 31.4218 39.0094 30.5025H40.5469C40.7644 30.5025 40.9731 30.4161 41.1269 30.2623C41.2808 30.1084 41.3672 29.8998 41.3672 29.6822V26.9213C41.3672 26.7037 41.2808 26.4951 41.1269 26.3412C40.9731 26.1874 40.7644 26.101 40.5469 26.101H39.0206ZM39.7266 28.8619H38.3409C38.1468 28.8618 37.959 28.9306 37.8108 29.056C37.6627 29.1814 37.5638 29.3553 37.5319 29.5467C37.337 30.6969 36.8814 31.7873 36.2002 32.7342C36.0854 32.8925 36.031 33.0866 36.0467 33.2814C36.0625 33.4763 36.1473 33.6591 36.2859 33.7969L37.2741 34.7813L36.4819 35.5735L35.4905 34.5816C35.3532 34.4442 35.1716 34.36 34.978 34.3439C34.7845 34.3279 34.5915 34.381 34.4334 34.4939C33.4851 35.17 32.3949 35.6205 31.2459 35.8111C31.0543 35.8434 30.8805 35.9428 30.7553 36.0914C30.6301 36.24 30.5618 36.4282 30.5625 36.6225V38.0288H29.4375V36.6225C29.4378 36.4283 29.3691 36.2402 29.2437 36.0918C29.1183 35.9435 28.9443 35.8445 28.7527 35.8125C27.6037 35.6219 26.5135 35.1714 25.5652 34.4953C25.4071 34.3824 25.2141 34.3293 25.0206 34.3453C24.827 34.3614 24.6454 34.4456 24.5081 34.583L23.5167 35.5749L22.7245 34.7827L23.7141 33.7969C23.852 33.6592 23.9363 33.477 23.9521 33.2828C23.9678 33.0886 23.9138 32.8951 23.7998 32.737C23.1185 31.7901 22.663 30.6997 22.4681 29.5496C22.4362 29.3581 22.3373 29.1842 22.1892 29.0588C22.041 28.9334 21.8532 28.8646 21.6591 28.8647H20.2734V27.7444H21.6502C21.8451 27.7444 22.0336 27.6751 22.1821 27.5487C22.3305 27.4224 22.4291 27.2473 22.4602 27.0549C22.6489 25.8986 23.1008 24.8011 23.7811 23.8472C23.894 23.6892 23.9471 23.4962 23.9311 23.3026C23.915 23.1091 23.8308 22.9275 23.6934 22.7902L22.7259 21.8227L23.5181 21.0305L24.4819 21.9942C24.6196 22.1321 24.8018 22.2164 24.996 22.2321C25.1902 22.2478 25.3836 22.1939 25.5417 22.08C26.4949 21.3938 27.5935 20.937 28.7522 20.745C28.9443 20.713 29.1188 20.6136 29.2443 20.4647C29.3699 20.3157 29.4384 20.127 29.4375 19.9322V18.5728H30.5625V19.9322C30.5625 20.1268 30.6316 20.315 30.7576 20.4633C30.8836 20.6116 31.0581 20.7103 31.2502 20.7417C32.4081 20.9345 33.506 21.3918 34.4583 22.0781C34.6163 22.1922 34.8098 22.2462 35.004 22.2305C35.1982 22.2148 35.3805 22.1304 35.5181 21.9924L36.4819 21.0286L37.2741 21.8208L36.3066 22.7883C36.1692 22.9256 36.085 23.1072 36.0689 23.3007C36.0529 23.4943 36.106 23.6873 36.2189 23.8453C36.8992 24.7992 37.3511 25.8967 37.5398 27.053C37.5709 27.2454 37.6695 27.4205 37.8179 27.5468C37.9664 27.6732 38.1549 27.7426 38.3498 27.7425H39.7266V28.8619Z" fill="#4971FF"/>
<path d="M30 22.5117C28.8597 22.5117 27.7449 22.8499 26.7968 23.4834C25.8486 24.1169 25.1096 25.0174 24.6733 26.0709C24.2369 27.1245 24.1227 28.2837 24.3452 29.4022C24.5676 30.5206 25.1168 31.5479 25.9231 32.3542C26.7294 33.1606 27.7568 33.7097 28.8752 33.9322C29.9936 34.1546 31.1529 34.0405 32.2064 33.6041C33.26 33.1677 34.1604 32.4287 34.794 31.4805C35.4275 30.5324 35.7656 29.4177 35.7656 28.2773C35.7635 26.7488 35.1554 25.2836 34.0746 24.2028C32.9938 23.122 31.5285 22.5138 30 22.5117ZM30 32.4051C29.1842 32.4051 28.3866 32.1632 27.7083 31.71C27.0299 31.2567 26.5012 30.6125 26.189 29.8587C25.8768 29.105 25.7951 28.2756 25.9543 27.4754C26.1134 26.6752 26.5063 25.9402 27.0832 25.3633C27.6601 24.7864 28.3951 24.3936 29.1953 24.2344C29.9954 24.0753 30.8248 24.1569 31.5786 24.4691C32.3323 24.7814 32.9766 25.3101 33.4298 25.9884C33.8831 26.6668 34.125 27.4643 34.125 28.2801C34.1235 29.3738 33.6885 30.4221 32.9152 31.1955C32.142 31.9688 31.0936 32.404 30 32.4056V32.4051Z" fill="#4971FF"/>
<path d="M30 6.36703C30.2176 6.36703 30.4262 6.28061 30.58 6.12677C30.7339 5.97293 30.8203 5.76428 30.8203 5.54672V0.820312C30.8203 0.602752 30.7339 0.394102 30.58 0.240264C30.4262 0.0864255 30.2176 0 30 0C29.7824 0 29.5738 0.0864255 29.42 0.240264C29.2661 0.394102 29.1797 0.602752 29.1797 0.820312V5.54672C29.1797 5.76428 29.2661 5.97293 29.42 6.12677C29.5738 6.28061 29.7824 6.36703 30 6.36703Z" fill="#4971FF"/>
<path d="M50.0532 8.78672L46.711 12.1289C46.6348 12.2051 46.5744 12.2955 46.5331 12.3951C46.4919 12.4946 46.4707 12.6013 46.4707 12.709C46.4707 12.8167 46.4919 12.9234 46.5331 13.0229C46.5744 13.1225 46.6348 13.2129 46.711 13.2891C46.7872 13.3652 46.8776 13.4257 46.9771 13.4669C47.0767 13.5081 47.1833 13.5293 47.2911 13.5293C47.3988 13.5293 47.5055 13.5081 47.605 13.4669C47.7045 13.4257 47.795 13.3652 47.8711 13.2891L51.2133 9.94688C51.2895 9.8707 51.3499 9.78027 51.3912 9.68074C51.4324 9.58121 51.4536 9.47453 51.4536 9.3668C51.4536 9.25907 51.4324 9.1524 51.3912 9.05287C51.3499 8.95334 51.2895 8.8629 51.2133 8.78672C51.1371 8.71055 51.0467 8.65012 50.9472 8.60889C50.8477 8.56767 50.741 8.54645 50.6332 8.54645C50.5255 8.54645 50.4188 8.56767 50.3193 8.60889C50.2198 8.65012 50.1293 8.71055 50.0532 8.78672Z" fill="#4971FF"/>
<path d="M59.1795 29.1797H54.4531C54.2356 29.1797 54.0269 29.2661 53.8731 29.42C53.7192 29.5738 53.6328 29.7824 53.6328 30C53.6328 30.2176 53.7192 30.4262 53.8731 30.58C54.0269 30.7339 54.2356 30.8203 54.4531 30.8203H59.1795C59.3971 30.8203 59.6057 30.7339 59.7596 30.58C59.9134 30.4262 59.9998 30.2176 59.9998 30C59.9998 29.7824 59.9134 29.5738 59.7596 29.42C59.6057 29.2661 59.3971 29.1797 59.1795 29.1797Z" fill="#4971FF"/>
<path d="M5.54672 29.1797H0.820312C0.602752 29.1797 0.394102 29.2661 0.240264 29.42C0.0864255 29.5738 0 29.7824 0 30C0 30.2176 0.0864255 30.4262 0.240264 30.58C0.394102 30.7339 0.602752 30.8203 0.820312 30.8203H5.54672C5.76428 30.8203 5.97293 30.7339 6.12677 30.58C6.28061 30.4262 6.36703 30.2176 6.36703 30C6.36703 29.7824 6.28061 29.5738 6.12677 29.42C5.97293 29.2661 5.76428 29.1797 5.54672 29.1797Z" fill="#4971FF"/>
<path d="M13.2895 12.1289L9.94731 8.78672C9.79346 8.63288 9.5848 8.54645 9.36723 8.54645C9.14966 8.54645 8.941 8.63288 8.78715 8.78672C8.63331 8.94057 8.54688 9.14923 8.54688 9.3668C8.54688 9.58437 8.63331 9.79303 8.78715 9.94688L12.1293 13.2891C12.2832 13.4429 12.4918 13.5293 12.7094 13.5293C12.927 13.5293 13.1356 13.4429 13.2895 13.2891C13.4433 13.1352 13.5298 12.9266 13.5298 12.709C13.5298 12.4914 13.4433 12.2828 13.2895 12.1289Z" fill="#4971FF"/>
</g>
<defs>
<clipPath id="clip0">
<rect width="60" height="60" fill="white"/>
</clipPath>
</defs>
</svg>
