<svg width="64" height="60" viewBox="0 0 64 60" fill="none" xmlns="http://www.w3.org/2000/svg">
<path d="M11.9408 37.4343C11.9269 38.8038 11.2344 40.3046 10.1701 41.2624C9.69816 41.6871 9.1504 41.9095 8.54834 41.8784C8.02002 41.8511 7.43733 41.4583 6.99574 41.0121C5.98313 39.9891 5.38737 38.4232 5.50641 37.0406C5.63047 35.5992 6.8485 34.4956 8.22947 34.2392C10.1641 33.88 11.9175 35.5379 11.9408 37.4343C11.9526 38.3909 13.437 38.392 13.4253 37.4343C13.404 35.701 12.4599 34.1017 10.9291 33.2759C9.39583 32.4488 7.44878 32.57 6.02519 33.5683C4.62026 34.5536 3.85294 36.2395 4.0327 37.9461C4.2039 39.5717 4.98727 41.2135 6.2082 42.3122C6.88709 42.9231 7.71273 43.3198 8.63084 43.3672C9.57481 43.416 10.4472 42.9546 11.152 42.3706C12.5423 41.2186 13.407 39.2237 13.4253 37.4344C13.435 36.4766 11.9505 36.4776 11.9408 37.4343Z" fill="#4971FF"/>
<path d="M15.9279 48.1153C15.9279 49.1733 15.9279 50.2314 15.9279 51.2894C16.1753 51.042 16.4227 50.7946 16.6701 50.5472C13.2966 50.5472 9.92319 50.5472 6.54966 50.5472C4.61916 50.5472 2.68874 50.5472 0.75824 50.5472C1.00565 50.7946 1.25306 51.042 1.50047 51.2894C1.50047 50.6905 1.50047 50.0917 1.50047 49.4928C1.50047 48.8587 1.43777 48.147 1.54747 47.5383C1.7459 46.4367 2.45794 45.5673 3.45182 45.0779C4.16952 44.7244 4.98674 44.7824 5.78566 44.7824C5.57204 44.6599 5.35842 44.5373 5.1448 44.4148C6.12504 45.7527 7.10527 47.0906 8.08551 48.4286C8.43146 48.9007 9.02184 48.904 9.3673 48.4286C10.3393 47.0906 11.3114 45.7527 12.2835 44.4148C12.0699 44.5373 11.8562 44.6599 11.6426 44.7824C12.5631 44.7824 13.4055 44.7561 14.2237 45.2066C15.2833 45.7902 15.9137 46.9203 15.9279 48.1153C15.9393 49.0718 17.4238 49.0729 17.4123 48.1153C17.3917 46.3824 16.473 44.796 14.9729 43.9249C14.2581 43.5099 13.4129 43.298 12.5886 43.298C12.0416 43.298 11.3636 43.1674 11.0009 43.6667C10.0354 44.9956 9.06991 46.3245 8.10438 47.6534C8.09809 47.6621 8.0918 47.6707 8.08551 47.6793C8.51275 47.6793 8.93999 47.6793 9.3673 47.6793C8.39611 46.3538 7.425 45.0282 6.45381 43.7027C6.08884 43.2046 5.56752 43.2979 5.0223 43.2979C4.27322 43.2979 3.56131 43.4189 2.87267 43.7195C1.27327 44.4178 0.269006 45.9258 0.0451361 47.6263C-0.0350951 48.2359 0.0160833 48.8805 0.0160833 49.4928C0.0160833 50.0917 0.0160833 50.6905 0.0160833 51.2894C0.0160833 51.694 0.353691 52.0316 0.75831 52.0316C4.13177 52.0316 7.50523 52.0316 10.8788 52.0316C12.8093 52.0316 14.7397 52.0316 16.6702 52.0316C17.0748 52.0316 17.4124 51.694 17.4124 51.2894C17.4124 50.2314 17.4124 49.1732 17.4124 48.1153C17.4123 47.158 15.9279 47.158 15.9279 48.1153Z" fill="#4971FF"/>
<path d="M57.9594 37.4343C57.9454 38.8038 57.2529 40.3046 56.1886 41.2624C55.7166 41.6871 55.1689 41.9095 54.5668 41.8784C54.0385 41.8511 53.4558 41.4583 53.0142 41.0121C52.0016 39.9891 51.4059 38.4232 51.5249 37.0406C51.649 35.5992 52.867 34.4956 54.2479 34.2392C56.1825 33.88 57.9361 35.5379 57.9594 37.4343C57.9711 38.3909 59.4556 38.392 59.4438 37.4343C59.4226 35.701 58.4784 34.1017 56.9476 33.2759C55.4144 32.4488 53.4673 32.57 52.0437 33.5683C50.6388 34.5536 49.8715 36.2395 50.0513 37.9461C50.2225 39.5717 51.0059 41.2135 52.2267 42.3122C52.9056 42.9231 53.7313 43.3198 54.6493 43.3672C55.5933 43.416 56.4657 42.9546 57.1704 42.3706C58.5607 41.2186 59.4255 39.2237 59.4437 37.4344C59.4536 36.4766 57.9691 36.4776 57.9594 37.4343Z" fill="#4971FF"/>
<path d="M61.9466 48.1153C61.9466 49.1733 61.9466 50.2314 61.9466 51.2894C62.194 51.042 62.4414 50.7946 62.6888 50.5472C59.3153 50.5472 55.9419 50.5472 52.5683 50.5472C50.6378 50.5472 48.7074 50.5472 46.7769 50.5472C47.0243 50.7946 47.2717 51.042 47.5191 51.2894C47.5191 50.6905 47.5191 50.0917 47.5191 49.4928C47.5191 48.8587 47.4564 48.147 47.5661 47.5383C47.7646 46.4367 48.4765 45.5673 49.4704 45.0779C50.1881 44.7244 51.0054 44.7824 51.8043 44.7824C51.5907 44.6599 51.3771 44.5373 51.1635 44.4148C52.1437 45.7527 53.1239 47.0906 54.1042 48.4286C54.4501 48.9007 55.0405 48.904 55.386 48.4286C56.358 47.0906 57.3301 45.7527 58.3021 44.4148C58.0885 44.5373 57.8749 44.6599 57.6613 44.7824C58.5817 44.7824 59.4241 44.7561 60.2423 45.2066C61.302 45.7902 61.9323 46.9203 61.9466 48.1153C61.9579 49.0718 63.4424 49.0729 63.431 48.1153C63.4104 46.3824 62.4916 44.7959 60.9915 43.9249C60.2767 43.5099 59.4315 43.298 58.6072 43.298C58.0602 43.298 57.3823 43.1674 57.0196 43.6667C56.054 44.9956 55.0886 46.3245 54.123 47.6534C54.1167 47.6621 54.1104 47.6707 54.1041 47.6793C54.5313 47.6793 54.9587 47.6793 55.3859 47.6793C54.4148 46.3538 53.4435 45.0282 52.4724 43.7027C52.1074 43.2046 51.5861 43.2979 51.0409 43.2979C50.2917 43.2979 49.5798 43.4189 48.8913 43.7195C47.2918 44.4178 46.2875 45.9258 46.0637 47.6263C45.9834 48.2359 46.0347 48.8805 46.0347 49.4928C46.0347 50.0917 46.0347 50.6905 46.0347 51.2894C46.0347 51.694 46.3723 52.0316 46.7769 52.0316C50.1504 52.0316 53.5238 52.0316 56.8974 52.0316C58.8279 52.0316 60.7583 52.0316 62.6888 52.0316C63.0934 52.0316 63.431 51.694 63.431 51.2894C63.431 50.2314 63.431 49.1732 63.431 48.1153C63.431 47.158 61.9466 47.158 61.9466 48.1153Z" fill="#4971FF"/>
<path d="M34.9506 4.70558C34.9367 6.0751 34.2442 7.57589 33.1798 8.53364C32.7078 8.95834 32.1601 9.1808 31.5581 9.14962C31.0298 9.12227 30.4471 8.72952 30.0055 8.28341C28.9929 7.26047 28.3971 5.69444 28.5162 4.31185C28.6402 2.87044 29.8583 1.76685 31.2392 1.5104C33.1738 1.15123 34.9274 2.80916 34.9506 4.70558C34.9624 5.66214 36.4468 5.66327 36.4351 4.70558C36.4138 2.97223 35.4697 1.37291 33.9389 0.547126C32.4056 -0.279999 30.4585 -0.158839 29.0349 0.839564C27.63 1.82489 26.8627 3.51074 27.0425 5.21737C27.2137 6.84285 27.997 8.48473 29.218 9.58337C29.8968 10.1943 30.7226 10.591 31.6406 10.6384C32.5845 10.6872 33.4569 10.2258 34.1617 9.64183C35.552 8.48989 36.4167 6.49492 36.4349 4.70558C36.4448 3.7479 34.9604 3.74889 34.9506 4.70558Z" fill="#4971FF"/>
<path d="M38.9368 15.3865C38.9368 16.4446 38.9368 17.5026 38.9368 18.5607C39.1842 18.3133 39.4316 18.0659 39.679 17.8185C36.3055 17.8185 32.9321 17.8185 29.5585 17.8185C27.628 17.8185 25.6975 17.8185 23.7671 17.8185C24.0145 18.0659 24.2619 18.3133 24.5093 18.5607C24.5093 17.9618 24.5093 17.3629 24.5093 16.7641C24.5093 16.1299 24.4466 15.4182 24.5563 14.8095C24.7548 13.7079 25.4668 12.8386 26.4607 12.3491C27.1784 11.9956 27.9956 12.0536 28.7945 12.0536C28.5809 11.9311 28.3673 11.8085 28.1537 11.6859C29.1339 13.0239 30.1142 14.3619 31.0944 15.6998C31.4403 16.172 32.0307 16.1752 32.3762 15.6998C33.3482 14.3619 34.3203 13.0239 35.2924 11.6859C35.0787 11.8085 34.8651 11.931 34.6515 12.0536C35.5719 12.0536 36.4143 12.0273 37.2326 12.4778C38.2922 13.0613 38.9226 14.1915 38.9368 15.3865C38.9482 16.3431 40.4326 16.3442 40.4212 15.3865C40.4006 13.6536 39.4819 12.0671 37.9817 11.196C37.2669 10.7809 36.4218 10.5691 35.5974 10.5691C35.0505 10.5691 34.3726 10.4384 34.0098 10.9377C33.0443 12.2667 32.0788 13.5956 31.1132 14.9245C31.1069 14.9332 31.1006 14.9419 31.0943 14.9505C31.5216 14.9505 31.9489 14.9505 32.3761 14.9505C31.4049 13.6249 30.4337 12.2993 29.4626 10.9738C29.0976 10.4756 28.5763 10.569 28.0311 10.569C27.282 10.569 26.5701 10.6899 25.8815 10.9906C24.2821 11.6889 23.2778 13.1969 23.0539 14.8974C22.9737 15.507 23.0249 16.1516 23.0249 16.764C23.0249 17.3629 23.0249 17.9617 23.0249 18.5606C23.0249 18.9652 23.3625 19.3029 23.7671 19.3029C27.1406 19.3029 30.5141 19.3029 33.8876 19.3029C35.8181 19.3029 37.7485 19.3029 39.679 19.3029C40.0836 19.3029 40.4212 18.9652 40.4212 18.5606C40.4212 17.5026 40.4212 16.4445 40.4212 15.3864C40.4212 14.4292 38.9368 14.4292 38.9368 15.3865Z" fill="#4971FF"/>
<path d="M7.76839 28.9095C9.25426 22.0487 13.6533 16.0964 19.7667 12.6484C19.9197 12.5621 20.0741 12.4784 20.2288 12.3953C21.0725 11.9425 20.3228 10.6609 19.4796 11.1135C13.1755 14.4972 8.45809 20.4446 6.61348 27.3587C6.51134 27.7416 6.42079 28.1274 6.33688 28.5147C6.13478 29.4481 7.56573 29.8449 7.76839 28.9095Z" fill="#4971FF"/>
<path d="M43.388 55.5627C36.1801 59.4614 27.2965 59.4669 20.0842 55.5763C19.909 55.4818 19.7356 55.384 19.5627 55.2854C18.73 54.8103 17.9824 56.0931 18.8135 56.5672C22.4099 58.6188 26.4441 59.7774 30.5785 59.9724C34.7625 60.1697 38.9496 59.3047 42.7443 57.5471C43.2163 57.3285 43.6798 57.092 44.1373 56.8445C44.9794 56.389 44.2299 55.1073 43.388 55.5627Z" fill="#4971FF"/>
<path d="M42.5984 12.0754C48.849 15.2103 53.5473 20.9049 55.3773 27.6605C55.4525 27.9379 55.521 28.217 55.5866 28.4968C55.805 29.4287 57.2363 29.0334 57.0181 28.1022C55.3857 21.1352 50.8394 15.064 44.6466 11.49C44.221 11.2443 43.7868 11.0139 43.3476 10.7936C42.986 10.6122 42.5461 10.6945 42.3321 11.0599C42.1376 11.3919 42.2369 11.8942 42.5984 12.0754Z" fill="#4971FF"/>
<path d="M40.3325 34.5221C40.2264 33.9279 40.1204 33.3337 40.0143 32.7397C39.9893 32.9302 39.9644 33.1209 39.9394 33.3116C40.5018 32.5689 41.064 31.8264 41.6263 31.0838C41.8398 30.8019 41.7023 30.4231 41.5103 30.1843C40.6828 29.1551 39.8552 28.126 39.0278 27.0969C38.8799 26.913 38.5248 26.8183 38.3056 26.906C37.4038 27.2668 36.5021 27.6275 35.6004 27.9883C35.7909 28.0133 35.9817 28.0382 36.1723 28.0632C35.7267 27.8297 35.2812 27.5963 34.8357 27.3628C34.9493 27.5107 35.0631 27.6586 35.1767 27.8064C34.922 26.9472 34.6673 26.0879 34.4127 25.2286C34.3186 24.9111 34.032 24.6837 33.6969 24.6837C32.3815 24.6837 31.066 24.6837 29.7505 24.6837C29.4155 24.6837 29.1289 24.9111 29.0348 25.2286C28.7802 26.0879 28.5256 26.9472 28.271 27.8064C28.3846 27.6586 28.4984 27.5107 28.6121 27.3628C28.1665 27.5963 27.7209 27.8297 27.2753 28.0632C27.466 28.0382 27.6566 28.0133 27.8473 27.9883C26.9455 27.6275 26.0436 27.2668 25.1419 26.906C24.9227 26.8184 24.5675 26.913 24.4197 27.0969C23.5922 28.126 22.7648 29.1551 21.9374 30.1843C21.7453 30.4231 21.6079 30.8018 21.8213 31.0838C22.3835 31.8264 22.9458 32.5689 23.5081 33.3116C23.4831 33.1209 23.4581 32.9302 23.4332 32.7397C23.3271 33.3337 23.221 33.9279 23.1149 34.5221C23.2286 34.3742 23.3423 34.2263 23.456 34.0785C22.6285 34.4923 21.801 34.906 20.9735 35.3198C20.6653 35.4739 20.5673 35.8463 20.6324 36.1579C20.8871 37.3779 21.1417 38.598 21.3964 39.8179C21.4676 40.159 21.7957 40.3347 22.1121 40.3628C23.0669 40.4477 24.0217 40.5327 24.9765 40.6176C24.7629 40.4951 24.5493 40.3725 24.3357 40.25C24.6433 40.6743 24.9509 41.0986 25.2586 41.5229C25.2248 41.398 25.191 41.2732 25.1572 41.1482C25.0512 42.0287 24.9451 42.9093 24.839 43.7898C24.8108 44.0249 24.9967 44.3306 25.2067 44.4307C26.3419 44.9718 27.4771 45.513 28.6123 46.0542C28.9108 46.1965 29.2686 46.1941 29.5117 45.9381C30.1164 45.3015 30.721 44.6649 31.3257 44.0282C31.1507 44.1007 30.9758 44.1731 30.8008 44.2456C31.4162 44.2456 32.0314 44.2456 32.6468 44.2456C32.4718 44.1731 32.2969 44.1007 32.1219 44.0282C32.7267 44.6649 33.3315 45.3015 33.9363 45.9381C34.1794 46.194 34.5372 46.1965 34.8358 46.0542C35.9708 45.513 37.1059 44.9718 38.241 44.4307C38.4509 44.3306 38.6369 44.0249 38.6086 43.7898C38.5025 42.9093 38.3964 42.0287 38.2903 41.1482C38.2566 41.2732 38.2228 41.398 38.189 41.5229C38.4967 41.0986 38.8045 40.6743 39.1122 40.25C38.8986 40.3725 38.685 40.4951 38.4714 40.6176C39.4262 40.5327 40.381 40.4477 41.3357 40.3628C41.6521 40.3347 41.9803 40.159 42.0515 39.8179C42.3061 38.5979 42.5606 37.3779 42.8152 36.1579C42.8803 35.8463 42.7823 35.4738 42.4742 35.3198C41.6466 34.906 40.8191 34.4923 39.9915 34.0785C39.6296 33.8975 39.1902 33.9791 38.976 34.3448C38.7817 34.6764 38.8806 35.1795 39.2423 35.3603C40.0699 35.7741 40.8974 36.1878 41.725 36.6016C41.6113 36.3222 41.4975 36.0428 41.3839 35.7634C41.1293 36.9834 40.8747 38.2034 40.6201 39.4234C40.8587 39.2417 41.0972 39.06 41.3358 38.8784C40.6777 38.937 40.0196 38.9955 39.3615 39.054C39.0713 39.0798 38.7811 39.1056 38.4909 39.1315C37.9934 39.1758 37.7911 39.5552 37.5288 39.9168C37.3225 40.2013 37.1161 40.4859 36.9097 40.7704C36.7245 41.0257 36.8399 41.4295 36.874 41.713C36.9574 42.4053 37.0408 43.0976 37.1242 43.7899C37.2467 43.5763 37.3693 43.3626 37.4918 43.149C36.3567 43.6901 35.2217 44.2314 34.0866 44.7725C34.3864 44.8112 34.6862 44.8499 34.9861 44.8886C34.5147 44.3923 34.0432 43.8961 33.5718 43.3999C33.3161 43.1306 33.0586 42.7614 32.6469 42.7614C32.3392 42.7614 32.0315 42.7614 31.7239 42.7614C31.4173 42.7614 31.1108 42.7614 30.8043 42.7614C30.4019 42.7614 30.1653 43.0954 29.9164 43.3574C29.4316 43.8678 28.9468 44.3781 28.462 44.8886C28.7619 44.8499 29.0617 44.8112 29.3615 44.7725C28.2263 44.2314 27.0911 43.6901 25.9559 43.149C26.0785 43.3626 26.201 43.5763 26.3236 43.7899C26.4046 43.1173 26.4856 42.4448 26.5666 41.7722C26.6016 41.482 26.7307 41.0361 26.5404 40.7737C26.3463 40.506 26.1522 40.2383 25.958 39.9706C25.6902 39.6012 25.4725 39.1773 24.9678 39.1325C24.6954 39.1083 24.423 39.084 24.1505 39.0598C23.4711 38.9994 22.7916 38.939 22.1122 38.8785C22.3507 39.0601 22.5893 39.2418 22.8279 39.4234C22.5732 38.2034 22.3186 36.9834 22.0639 35.7635C21.9502 36.0428 21.8365 36.3223 21.7228 36.6016C22.3663 36.2799 23.0097 35.9582 23.6532 35.6365C23.9302 35.498 24.3064 35.3762 24.4717 35.0941C24.65 34.7895 24.6514 34.3291 24.7118 33.9913C24.7716 33.6565 24.8914 33.2803 24.8914 32.9371C24.8914 32.5823 24.5894 32.2975 24.3897 32.0338C23.9609 31.4674 23.5321 30.9011 23.1032 30.3347C23.0646 30.6345 23.0258 30.9343 22.9872 31.2342C23.8146 30.205 24.642 29.176 25.4695 28.1468C25.2288 28.2104 24.9881 28.2741 24.7474 28.3377C25.3689 28.5864 25.9905 28.835 26.6121 29.0836C26.8861 29.1933 27.1602 29.303 27.4344 29.4126C27.7923 29.5558 28.233 29.236 28.5423 29.0739C28.8467 28.9145 29.2636 28.7767 29.5117 28.5287C29.7305 28.3099 29.7927 27.8971 29.8776 27.6104C30.0739 26.9481 30.2701 26.2857 30.4664 25.6234C30.2278 25.805 29.9893 25.9866 29.7507 26.1682C31.0661 26.1682 32.3816 26.1682 33.6971 26.1682C33.4585 25.9866 33.2199 25.805 32.9814 25.6234C33.1719 26.2664 33.3626 26.9094 33.5532 27.5525C33.6306 27.8137 33.6802 28.1394 33.8202 28.3785C34.0131 28.7078 34.5258 28.875 34.8457 29.0426C35.1557 29.2051 35.6444 29.5604 36.0034 29.4167C36.2607 29.3138 36.5179 29.2109 36.7752 29.108C37.4169 28.8512 38.0586 28.5945 38.7003 28.3377C38.4596 28.2741 38.2188 28.2105 37.9781 28.1469C38.8056 29.176 39.6331 30.2051 40.4606 31.2343C40.422 30.9345 40.3832 30.6346 40.3445 30.3348C39.8164 31.0322 39.2882 31.7297 38.7601 32.4273C38.4862 32.7889 38.5916 33.184 38.6653 33.5966C38.7438 34.0368 38.8225 34.4768 38.901 34.9169C38.9722 35.3156 39.4515 35.5351 39.814 35.4354C40.2307 35.3205 40.4036 34.92 40.3325 34.5221Z" fill="#4971FF"/>
<path d="M31.7237 38.2574C30.3383 38.2387 29.077 37.2047 28.9069 35.8096C28.7284 34.3461 29.6525 33.0264 31.0607 32.6592C32.4117 32.3069 33.8876 33.1052 34.3751 34.3968C34.8979 35.7821 34.2772 37.2732 32.9946 37.9592C32.611 38.1642 32.1609 38.2515 31.7237 38.2574C30.7672 38.2704 30.766 39.7548 31.7237 39.7419C33.4971 39.7179 35.069 38.6527 35.7384 37.0104C36.3972 35.3943 35.9539 33.5072 34.7147 32.2992C33.4176 31.0348 31.4934 30.8056 29.8705 31.5172C28.299 32.2061 27.3386 33.9331 27.4067 35.6159C27.4999 37.9146 29.4534 39.7112 31.7237 39.7418C32.6814 39.7548 32.6802 38.2704 31.7237 38.2574Z" fill="#4971FF"/>
</svg>
