<svg width="27" height="27" viewBox="0 0 27 27" fill="none" xmlns="http://www.w3.org/2000/svg">
<path d="M13.5 0C10.83 0 8.21987 0.791761 5.99981 2.27516C3.77974 3.75856 2.04941 5.86697 1.02763 8.33377C0.00584936 10.8006 -0.261496 13.515 0.259405 16.1337C0.780305 18.7525 2.06606 21.1579 3.95406 23.0459C5.84207 24.9339 8.24754 26.2197 10.8663 26.7406C13.485 27.2615 16.1994 26.9942 18.6662 25.9724C21.133 24.9506 23.2414 23.2203 24.7248 21.0002C26.2082 18.7801 27 16.17 27 13.5C27 9.91957 25.5777 6.4858 23.0459 3.95406C20.5142 1.42232 17.0804 0 13.5 0ZM18.5625 14.7656H8.4375C8.10184 14.7656 7.77992 14.6323 7.54257 14.3949C7.30522 14.1576 7.17188 13.8357 7.17188 13.5C7.17188 13.1643 7.30522 12.8424 7.54257 12.6051C7.77992 12.3677 8.10184 12.2344 8.4375 12.2344H18.5625C18.8982 12.2344 19.2201 12.3677 19.4574 12.6051C19.6948 12.8424 19.8281 13.1643 19.8281 13.5C19.8281 13.8357 19.6948 14.1576 19.4574 14.3949C19.2201 14.6323 18.8982 14.7656 18.5625 14.7656Z" fill="#4971FF"/>
</svg>
