<svg width="27" height="27" viewBox="0 0 27 27" fill="none" xmlns="http://www.w3.org/2000/svg">
<path d="M13.5 0C20.9561 0 27 6.04395 27 13.5C27 20.9561 20.9561 27 13.5 27C6.04395 27 0 20.9561 0 13.5C0 6.04395 6.04395 0 13.5 0ZM13.5 6.75C13.2553 6.75001 13.0189 6.83862 12.8345 6.99944C12.6501 7.16025 12.5302 7.3824 12.497 7.6248L12.4875 7.7625V12.4875H7.7625C7.50597 12.4876 7.25903 12.585 7.07158 12.7602C6.88413 12.9353 6.77015 13.1751 6.75267 13.431C6.73518 13.6869 6.8155 13.94 6.97738 14.139C7.13927 14.338 7.37066 14.4681 7.6248 14.503L7.7625 14.5125H12.4875V19.2375C12.4876 19.494 12.585 19.741 12.7602 19.9284C12.9353 20.1159 13.1751 20.2299 13.431 20.2473C13.6869 20.2648 13.94 20.1845 14.139 20.0226C14.338 19.8607 14.4681 19.6293 14.503 19.3752L14.5125 19.2375V14.5125H19.2375C19.494 14.5124 19.741 14.415 19.9284 14.2398C20.1159 14.0647 20.2299 13.8249 20.2473 13.569C20.2648 13.3131 20.1845 13.06 20.0226 12.861C19.8607 12.662 19.6293 12.5319 19.3752 12.497L19.2375 12.4875H14.5125V7.7625C14.5125 7.49397 14.4058 7.23643 14.2159 7.04655C14.0261 6.85667 13.7685 6.75 13.5 6.75Z" fill="#4971FF"/>
</svg>
