<svg width="43" height="42" viewBox="0 0 43 42" fill="none" xmlns="http://www.w3.org/2000/svg">
<path d="M37.5817 19.8926H42.0028C42.0028 8.55256 33.4414 3.05176e-05 22.0859 3.05176e-05V4.42108C31.0651 4.42108 37.5817 10.9267 37.5817 19.8926Z" fill="#4971FF"/>
<path d="M22.1059 13.2632C26.7546 13.2632 28.7375 15.246 28.7375 19.8948H33.1585C33.1585 12.7658 29.2348 8.84215 22.1059 8.84215V13.2632ZM29.6703 25.2951C29.2456 24.909 28.6874 24.7031 28.1137 24.7209C27.54 24.7386 26.9956 24.9786 26.5955 25.3902L21.3057 30.8303C20.0324 30.5871 17.4726 29.7891 14.8377 27.1608C12.2027 24.5236 11.4047 21.9572 11.1682 20.6928L16.6039 15.4008C17.016 15.001 17.2563 14.4565 17.274 13.8826C17.2918 13.3087 17.0855 12.7504 16.6989 12.3259L8.53105 3.34457C8.1443 2.91872 7.60678 2.66042 7.03265 2.62451C6.45851 2.5886 5.893 2.77792 5.4562 3.15225L0.659361 7.26604C0.277185 7.6496 0.049077 8.16009 0.0183075 8.70067C-0.0148504 9.2533 -0.647061 22.344 9.50368 32.4992C18.359 41.3524 29.4515 42 32.5064 42C32.9529 42 33.2271 41.9868 33.3 41.9824C33.8405 41.9521 34.3507 41.723 34.7324 41.3391L38.844 36.54C39.2186 36.1035 39.4083 35.5382 39.3728 34.9641C39.3373 34.3899 39.0794 33.8523 38.6539 33.4652L29.6703 25.2951Z" fill="#4971FF"/>
</svg>
