<svg width="53" height="42" viewBox="0 0 53 42" fill="none" xmlns="http://www.w3.org/2000/svg">
<path d="M47.7 3.05176e-05H5.3C2.385 3.05176e-05 0.0265 2.36253 0.0265 5.25003L0 36.75C0 39.6375 2.385 42 5.3 42H47.7C50.615 42 53 39.6375 53 36.75V5.25003C53 2.36253 50.615 3.05176e-05 47.7 3.05176e-05ZM46.64 11.1563L27.9045 22.7588C27.0565 23.2838 25.9435 23.2838 25.0955 22.7588L6.36 11.1563C6.09428 11.0085 5.86159 10.8089 5.676 10.5695C5.49042 10.3301 5.35582 10.0558 5.28032 9.76338C5.20483 9.47094 5.19003 9.16636 5.23681 8.86809C5.2836 8.56981 5.39099 8.28404 5.5525 8.02807C5.714 7.7721 5.92626 7.55125 6.17642 7.37889C6.42659 7.20653 6.70946 7.08625 7.00791 7.02531C7.30637 6.96438 7.6142 6.96407 7.91278 7.02439C8.21136 7.08472 8.49448 7.20443 8.745 7.37628L26.5 18.375L44.255 7.37628C44.5055 7.20443 44.7886 7.08472 45.0872 7.02439C45.3858 6.96407 45.6936 6.96438 45.9921 7.02531C46.2905 7.08625 46.5734 7.20653 46.8236 7.37889C47.0737 7.55125 47.286 7.7721 47.4475 8.02807C47.609 8.28404 47.7164 8.56981 47.7632 8.86809C47.81 9.16636 47.7952 9.47094 47.7197 9.76338C47.6442 10.0558 47.5096 10.3301 47.324 10.5695C47.1384 10.8089 46.9057 11.0085 46.64 11.1563Z" fill="#4971FF"/>
</svg>
