<svg width="36" height="43" viewBox="0 0 36 43" fill="none" xmlns="http://www.w3.org/2000/svg">
<path d="M17.9907 3.05176e-05C27.7297 3.05176e-05 35.6239 7.8943 35.6239 17.6333C35.6239 25.0845 30.3882 33.2048 20.0524 42.0811C19.4777 42.5748 18.7449 42.846 17.9873 42.8453C17.2296 42.8446 16.4974 42.5722 15.9235 42.0775L15.2399 41.4843C5.36165 32.8395 0.357422 24.9181 0.357422 17.6333C0.357422 7.8943 8.25169 3.05176e-05 17.9907 3.05176e-05ZM17.9907 10.8513C16.192 10.8513 14.4669 11.5658 13.1951 12.8377C11.9232 14.1095 11.2087 15.8346 11.2087 17.6333C11.2087 19.432 11.9232 21.157 13.1951 22.4289C14.4669 23.7008 16.192 24.4153 17.9907 24.4153C19.7894 24.4153 21.5144 23.7008 22.7863 22.4289C24.0582 21.157 24.7727 19.432 24.7727 17.6333C24.7727 15.8346 24.0582 14.1095 22.7863 12.8377C21.5144 11.5658 19.7894 10.8513 17.9907 10.8513Z" fill="#4971FF"/>
</svg>
