<svg width="39" height="39" viewBox="0 0 39 39" fill="none" xmlns="http://www.w3.org/2000/svg">
<path d="M19.5 3.05176e-05C8.73094 3.05176e-05 0 8.73097 0 19.5C0 30.2691 8.73094 39 19.5 39C30.2691 39 39 30.2691 39 19.5C39 8.73097 30.2691 3.05176e-05 19.5 3.05176e-05ZM28.5 22.5H19.5C19.1022 22.5 18.7206 22.342 18.4393 22.0607C18.158 21.7794 18 21.3979 18 21V7.50003C18 7.10221 18.158 6.72067 18.4393 6.43937C18.7206 6.15807 19.1022 6.00003 19.5 6.00003C19.8978 6.00003 20.2794 6.15807 20.5607 6.43937C20.842 6.72067 21 7.10221 21 7.50003V19.5H28.5C28.8978 19.5 29.2794 19.6581 29.5607 19.9394C29.842 20.2207 30 20.6022 30 21C30 21.3979 29.842 21.7794 29.5607 22.0607C29.2794 22.342 28.8978 22.5 28.5 22.5Z" fill="#4971FF"/>
</svg>
