<svg width="32" height="33" viewBox="0 0 32 33" fill="none" xmlns="http://www.w3.org/2000/svg">
<path d="M16.0007 0C7.17731 0 0 7.17698 0 16C0 24.8234 7.17731 32.0013 16.0007 32.0013C24.8227 32.0013 32 24.8234 32 16C32 7.17797 24.8227 0 16.0007 0ZM1.83636 16C1.83636 13.9468 2.27725 11.9969 3.06303 10.2364L9.81932 28.7473C5.09469 26.4519 1.83636 21.6071 1.83636 16ZM16.0007 30.1653C14.6101 30.1653 13.2683 29.9601 11.9989 29.588L16.2482 17.2396L20.6032 29.1663C20.631 29.2362 20.6657 29.3007 20.7038 29.3616C19.2318 29.88 17.6494 30.1653 16.0007 30.1653ZM17.9519 9.35956C18.8045 9.31455 19.5724 9.22419 19.5724 9.22419C20.336 9.13416 20.2467 8.01307 19.4827 8.05809C19.4827 8.05809 17.1883 8.23782 15.7077 8.23782C14.3166 8.23782 11.9767 8.05809 11.9767 8.05809C11.2138 8.01307 11.1251 9.18017 11.8874 9.22419C11.8874 9.22419 12.6099 9.31422 13.3722 9.35956L15.579 15.4055L12.4799 24.7022L7.32262 9.36023C8.17626 9.31521 8.94383 9.22518 8.94383 9.22518C9.70612 9.13515 9.61708 8.0134 8.85281 8.05908C8.85281 8.05908 6.55934 8.23848 5.07781 8.23848C4.81102 8.23848 4.49889 8.23153 4.16657 8.22127C6.69803 4.37543 11.0519 1.83669 16.0007 1.83669C19.6886 1.83669 23.0452 3.24674 25.5651 5.55444C25.5032 5.55146 25.4446 5.54352 25.3811 5.54352C23.9902 5.54352 23.0022 6.75529 23.0022 8.05743C23.0022 9.22419 23.6745 10.2122 24.3934 11.3786C24.9326 12.323 25.5608 13.5347 25.5608 15.2854C25.5608 16.4978 25.0954 17.9049 24.4831 19.864L23.0704 24.585L17.9519 9.35956ZM23.1207 28.2425L27.4468 15.7342C28.2561 13.7138 28.5239 12.0979 28.5239 10.6607C28.5239 10.1401 28.4895 9.65514 28.4286 9.20433C29.5357 11.2217 30.1646 13.5374 30.164 16.0003C30.164 21.2254 27.331 25.7872 23.1207 28.2425Z" fill="#4971FF"/>
</svg>
