<svg width="24" height="31" viewBox="0 0 24 31" fill="none" xmlns="http://www.w3.org/2000/svg">
<path d="M23.0807 7.44558L15.8982 0.263066C15.7305 0.0953502 15.5017 0 15.2632 0H2.69351C1.20831 0 0 1.20831 0 2.69351V27.9526C0 29.4378 1.20831 30.6462 2.69351 30.6462H20.6502C22.1354 30.6462 23.3438 29.4378 23.3438 27.9526V8.08053C23.3438 7.83572 23.241 7.60581 23.0807 7.44558ZM16.1611 3.06539L20.2784 7.18269H17.0589C16.5638 7.18269 16.1611 6.77992 16.1611 6.28486V3.06539ZM20.6502 28.8505H2.69351C2.19844 28.8505 1.79567 28.4477 1.79567 27.9526V2.69351C1.79567 2.19844 2.19844 1.79567 2.69351 1.79567H14.3654V6.28486C14.3654 7.77006 15.5737 8.97837 17.0589 8.97837H21.5481V27.9526C21.5481 28.4477 21.1453 28.8505 20.6502 28.8505Z" fill="#4971FF"/>
<path d="M17.0586 12.6895H6.28456C5.78871 12.6895 5.38672 13.0914 5.38672 13.5873C5.38672 14.0831 5.78871 14.4851 6.28456 14.4851H17.0586C17.5544 14.4851 17.9564 14.0831 17.9564 13.5873C17.9564 13.0914 17.5544 12.6895 17.0586 12.6895Z" fill="#4971FF"/>
<path d="M17.0586 16.2808H6.28456C5.78871 16.2808 5.38672 16.6828 5.38672 17.1786C5.38672 17.6744 5.78871 18.0764 6.28456 18.0764H17.0586C17.5544 18.0764 17.9564 17.6744 17.9564 17.1786C17.9564 16.6828 17.5544 16.2808 17.0586 16.2808Z" fill="#4971FF"/>
<path d="M17.0586 19.8721H6.28456C5.78871 19.8721 5.38672 20.2741 5.38672 20.77C5.38672 21.2658 5.78871 21.6678 6.28456 21.6678H17.0586C17.5544 21.6678 17.9564 21.2658 17.9564 20.77C17.9564 20.2741 17.5544 19.8721 17.0586 19.8721Z" fill="#4971FF"/>
<path d="M13.4672 23.4634H6.28456C5.78871 23.4634 5.38672 23.8654 5.38672 24.3613C5.38672 24.8571 5.78871 25.2591 6.28456 25.2591H13.4672C13.9631 25.2591 14.3651 24.8571 14.3651 24.3613C14.3651 23.8654 13.9631 23.4634 13.4672 23.4634Z" fill="#4971FF"/>
</svg>
