<svg width="34" height="34" viewBox="0 0 34 34" fill="none" xmlns="http://www.w3.org/2000/svg">
<path d="M2.06667 11.1334H1V9.00002C1.00079 8.29302 1.282 7.6152 1.78193 7.11528C2.28185 6.61535 2.95967 6.33415 3.66667 6.33335H21.8V5.26669H20.7333C20.6278 5.26669 20.5247 5.23541 20.437 5.17681C20.3493 5.11821 20.2809 5.03491 20.2406 4.93745C20.2002 4.84 20.1896 4.73276 20.2102 4.6293C20.2308 4.52584 20.2816 4.43081 20.3562 4.35622L23.5562 1.15622C23.6057 1.10669 23.6645 1.0674 23.7292 1.0406C23.7939 1.0138 23.8633 1 23.9333 1C24.0034 1 24.0727 1.0138 24.1374 1.0406C24.2021 1.0674 24.2609 1.10669 24.3105 1.15622L27.5105 4.35622C27.5851 4.43081 27.6359 4.52584 27.6564 4.6293C27.677 4.73276 27.6665 4.84 27.6261 4.93745C27.5857 5.03491 27.5174 5.11821 27.4296 5.17681C27.3419 5.23541 27.2388 5.26669 27.1333 5.26669H26.0667V6.33335H28.2C28.907 6.33415 29.5848 6.61535 30.0847 7.11528C30.5847 7.6152 30.8659 8.29302 30.8667 9.00002V19.6667H29.8V9.00002C29.7995 8.57582 29.6308 8.16915 29.3308 7.86919C29.0309 7.56924 28.6242 7.40051 28.2 7.40002H26.0667V17H25V4.73335C25 4.5919 25.0562 4.45625 25.1562 4.35623C25.2562 4.25621 25.3919 4.20002 25.5333 4.20002H25.8458L23.9333 2.28755L22.0209 4.20002H22.3333C22.4748 4.20002 22.6104 4.25621 22.7105 4.35623C22.8105 4.45625 22.8667 4.5919 22.8667 4.73335V17.5334H21.8V7.40002H3.66667C3.24247 7.40051 2.83579 7.56924 2.53584 7.86919C2.23589 8.16915 2.06716 8.57582 2.06667 9.00002V11.1334ZM3.66667 27.6667H12.5498L11.2698 31.9334H10.0667V33H21.8V31.9334H20.5969L19.9109 29.6467L18.8891 29.9534L19.4832 31.9334H12.3832L13.6632 27.6667H17.5333V26.6H3.66667C3.24247 26.5995 2.83579 26.4308 2.53584 26.1308C2.23589 25.8309 2.06716 25.4242 2.06667 25V24.4667H17V23.4H2.06667V12.2H1V25C1.00079 25.707 1.282 26.3848 1.78193 26.8848C2.28185 27.3847 2.95967 27.6659 3.66667 27.6667ZM19.6667 18.6V10.0667H17.5333V22.3334H3.66667V21.2667H5.8V17C5.8 16.8586 5.85619 16.7229 5.95621 16.6229C6.05623 16.5229 6.19188 16.4667 6.33333 16.4667H9.53333C9.67478 16.4667 9.81044 16.5229 9.91046 16.6229C10.0105 16.7229 10.0667 16.8586 10.0667 17V21.2667H11.1333V13.2667C11.1333 13.1252 11.1895 12.9896 11.2895 12.8896C11.3896 12.7895 11.5252 12.7334 11.6667 12.7334H14.8667C15.0081 12.7334 15.1438 12.7895 15.2438 12.8896C15.3438 12.9896 15.4 13.1252 15.4 13.2667V21.2667H16.4667V9.53335C16.4667 9.3919 16.5229 9.25625 16.6229 9.15623C16.7229 9.05621 16.8586 9.00002 17 9.00002H20.2C20.3414 9.00002 20.4771 9.05621 20.5771 9.15623C20.6771 9.25625 20.7333 9.3919 20.7333 9.53335V18.6H19.6667ZM9 17.5334H6.86667V21.2667H9V17.5334ZM14.3333 13.8H12.2V21.2667H14.3333V13.8ZM3.66667 8.46669V9.53335H4.73333V8.46669H3.66667ZM6.86667 8.46669H5.8V9.53335H6.86667V8.46669ZM7.93333 8.46669V9.53335H9V8.46669H7.93333ZM32.5311 30.2689C32.8302 30.5695 32.9987 30.976 33 31.4C33.0002 31.6102 32.9589 31.8183 32.8786 32.0125C32.7983 32.2068 32.6804 32.3832 32.5318 32.5318C32.3832 32.6804 32.2067 32.7983 32.0125 32.8786C31.8183 32.959 31.6102 33.0002 31.4 33C30.9764 32.9963 30.5708 32.8282 30.2689 32.5312L27.716 29.9784C26.3732 30.7705 24.7875 31.0456 23.2563 30.7522C21.7251 30.4588 20.3535 29.617 19.3987 28.3846C18.4438 27.1522 17.9712 25.6138 18.0695 24.0578C18.1679 22.5019 18.8303 21.0352 19.9328 19.9328C21.0352 18.8304 22.5018 18.1679 24.0578 18.0696C25.6137 17.9712 27.1521 18.4438 28.3846 19.3987C29.617 20.3536 30.4588 21.7252 30.7522 23.2564C31.0456 24.7876 30.7705 26.3732 29.9783 27.716L32.5311 30.2689ZM29.8 24.4667C29.8 23.4119 29.4872 22.3807 28.9012 21.5036C28.3151 20.6266 27.4822 19.943 26.5076 19.5393C25.5331 19.1357 24.4608 19.03 23.4262 19.2358C22.3916 19.4416 21.4413 19.9496 20.6954 20.6955C19.9496 21.4413 19.4416 22.3916 19.2358 23.4262C19.03 24.4608 19.1356 25.5331 19.5393 26.5077C19.943 27.4822 20.6266 28.3152 21.5036 28.9012C22.3807 29.4872 23.4118 29.8 24.4667 29.8C25.8807 29.7984 27.2363 29.236 28.2361 28.2362C29.236 27.2363 29.7984 25.8807 29.8 24.4667ZM31.7768 31.0232L29.351 28.5973C29.121 28.8689 28.8689 29.121 28.5973 29.351L31.0232 31.7768C31.0722 31.8284 31.131 31.8697 31.1962 31.8982C31.2614 31.9267 31.3316 31.9418 31.4027 31.9428C31.4739 31.9437 31.5445 31.9304 31.6104 31.9036C31.6763 31.8768 31.7361 31.837 31.7864 31.7867C31.8367 31.7364 31.8765 31.6766 31.9033 31.6107C31.9301 31.5448 31.9434 31.4742 31.9425 31.403C31.9415 31.3319 31.9264 31.2617 31.8979 31.1965C31.8694 31.1313 31.8281 31.0725 31.7765 31.0235L31.7768 31.0232ZM28.7333 24.4667C28.7333 25.3106 28.4831 26.1355 28.0143 26.8371C27.5454 27.5388 26.8791 28.0856 26.0994 28.4086C25.3198 28.7315 24.4619 28.816 23.6343 28.6514C22.8066 28.4867 22.0464 28.0804 21.4497 27.4837C20.853 26.887 20.4466 26.1267 20.282 25.2991C20.1174 24.4714 20.2018 23.6135 20.5248 22.8339C20.8477 22.0543 21.3946 21.3879 22.0962 20.9191C22.7979 20.4503 23.6228 20.2 24.4667 20.2C25.5979 20.2013 26.6824 20.6512 27.4823 21.4511C28.2821 22.251 28.7321 23.3355 28.7333 24.4667ZM27.6667 24.4667C27.6667 23.8338 27.479 23.2151 27.1274 22.6889C26.7758 22.1626 26.276 21.7525 25.6913 21.5103C25.1065 21.2681 24.4631 21.2047 23.8424 21.3282C23.2216 21.4516 22.6515 21.7564 22.2039 22.2039C21.7564 22.6515 21.4516 23.2217 21.3282 23.8424C21.2047 24.4631 21.2681 25.1066 21.5103 25.6913C21.7525 26.276 22.1626 26.7758 22.6888 27.1274C23.2151 27.479 23.8338 27.6667 24.4667 27.6667C25.3151 27.6658 26.1285 27.3283 26.7284 26.7284C27.3283 26.1285 27.6657 25.3151 27.6667 24.4667ZM22.3333 24.4667H23.4C23.4003 24.1839 23.5128 23.9128 23.7128 23.7128C23.9128 23.5128 24.1839 23.4004 24.4667 23.4V22.3334C23.9011 22.334 23.3588 22.559 22.9589 22.9589C22.5589 23.3588 22.334 23.9011 22.3333 24.4667ZM29.2667 4.20002H30.3333C30.3324 3.35161 29.995 2.53822 29.395 1.93831C28.7951 1.3384 27.9817 1.00095 27.1333 1.00002V2.06669C27.6989 2.06732 28.2412 2.29229 28.6411 2.69223C29.0411 3.09217 29.266 3.63442 29.2667 4.20002Z" fill="#4971FF" stroke="#4971FF" stroke-width="0.5"/>
</svg>
