<svg width="68" height="68" viewBox="0 0 68 68" fill="none" xmlns="http://www.w3.org/2000/svg">
<rect width="68" height="68" rx="5" fill="#EFF6FE"/>
<path d="M33.3243 28.9238C33.5849 29.1713 34.0183 29.1213 34.2163 28.8225L38.1162 22.9369C38.295 22.6671 38.2211 22.3033 37.9514 22.1245C37.6819 21.946 37.3181 22.0198 37.1393 22.2893L33.6249 27.5932L31.6721 25.739C31.4374 25.5162 31.0666 25.526 30.8435 25.7607C30.6208 25.9953 30.6305 26.3661 30.8652 26.5889C30.8649 26.5889 33.3222 28.922 33.3243 28.9238Z" fill="#4971FF"/>
<path d="M33.7244 37.8607C33.8364 37.912 33.9603 37.9392 34.0836 37.9392H34.0885C34.2139 37.9385 34.3397 37.9099 34.452 37.8561C43.3619 33.6188 44.8719 24.4763 45.1221 21.7752C45.1795 21.1584 44.8322 20.5841 44.2582 20.3461C42.4845 19.6097 41.2788 17.963 41.1115 16.0486C41.0599 15.4593 40.5564 15 39.9631 15H39.9561L27.9523 15.0705C27.3472 15.0739 26.8555 15.5338 26.8091 16.1401C26.6614 18.0551 25.4734 19.7137 23.7086 20.4688C23.1403 20.7117 22.8016 21.2891 22.8663 21.9055C23.1483 24.6036 24.7654 33.728 33.7244 37.8607ZM24.1694 21.546C26.3334 20.6207 27.7912 18.5892 27.9764 16.2421L39.9457 16.1719C40.1585 18.5138 41.637 20.5267 43.809 21.4282C43.906 21.4688 43.9649 21.5646 43.9555 21.6672C43.7205 24.1986 42.3145 32.7341 34.0815 36.734C25.8011 32.8314 24.2963 24.3124 24.0314 21.7838C24.0208 21.6815 24.0763 21.586 24.1694 21.546Z" fill="#4971FF"/>
<path d="M25.6328 24.7943C25.7036 25.0549 26.0341 25.2936 26.3521 25.206C26.664 25.1199 26.8486 24.7992 26.7638 24.487C26.6146 23.9371 26.4891 23.3795 26.3906 22.8272C27.9824 21.7899 29.1637 20.2417 29.7432 18.4335L38.2051 18.3838C38.8057 20.1846 40.0051 21.7194 41.6091 22.7377C41.5172 23.2916 41.3982 23.851 41.2551 24.4031C41.1739 24.7165 41.3622 25.0363 41.6753 25.1175C41.989 25.1987 42.3085 25.0104 42.3897 24.697C42.5576 24.0488 42.6943 23.3908 42.7956 22.7414C42.8524 22.3785 42.6863 22.0218 42.3732 21.8326C40.8791 20.9302 39.7747 19.5145 39.2635 17.8464C39.1484 17.4713 38.7947 17.2107 38.4023 17.2107H38.3968L29.5375 17.2626C29.1426 17.265 28.7893 17.5308 28.6785 17.9086C28.1871 19.5825 27.0992 21.0111 25.6157 21.9312C25.3048 22.1237 25.1433 22.4823 25.204 22.8449C25.3133 23.4927 25.4573 24.1486 25.6328 24.7943Z" fill="#4971FF"/>
<path d="M41.2046 26.5317C40.9055 26.4078 40.5631 26.5506 40.4395 26.8497C39.0854 30.1316 36.9419 32.6267 34.0665 34.2688C31.1689 32.6584 28.9942 30.1844 27.602 26.9129C27.475 26.6153 27.1308 26.4768 26.8332 26.6034C26.5354 26.7301 26.3968 27.0743 26.5235 27.3719C28.043 30.9418 30.4367 33.6332 33.6383 35.3705C33.7732 35.4441 33.9209 35.4804 34.0683 35.4804C34.2194 35.4804 34.3702 35.4422 34.5075 35.3656C37.685 33.5929 40.0452 30.878 41.5229 27.2965C41.6465 26.9974 41.504 26.655 41.2046 26.5317Z" fill="#4971FF"/>
<path d="M17.7596 44.9822C16.6167 44.9822 15.6865 45.912 15.6865 47.0552C15.6865 48.1984 16.6167 49.1283 17.7596 49.1283C18.9028 49.1283 19.8329 48.1984 19.8329 47.0552C19.8329 45.912 18.9031 44.9822 17.7596 44.9822ZM17.7596 47.9564C17.2628 47.9564 16.8584 47.5524 16.8584 47.0552C16.8584 46.5584 17.2628 46.1541 17.7596 46.1541C18.2567 46.1541 18.6611 46.5584 18.6611 47.0552C18.6611 47.5524 18.2567 47.9564 17.7596 47.9564Z" fill="#4971FF"/>
<path d="M53.5798 39.2459C52.8287 38.1424 51.3166 37.85 50.2091 38.5941L42.5492 43.7207L40.914 43.6288L40.8722 43.2101C40.7093 41.5704 39.4559 40.264 37.8244 40.0333C37.8141 40.0317 37.804 40.0305 37.7936 40.0296L29.5398 39.3063C29.2606 39.2627 28.3668 39.006 25.9107 37.5974C24.6341 36.8652 23.1959 36.452 21.7347 36.3959V34.863C21.7347 34.0936 21.1091 33.468 20.3397 33.468H15.395C14.6259 33.468 14 34.0939 14 34.863V49.9603C14 50.7294 14.6259 51.3553 15.395 51.3553H20.3397C21.1088 51.3553 21.7347 50.7294 21.7347 49.9603V49.5444L28.9496 52.2766C28.9655 52.2827 29.5514 52.5018 30.6287 52.4002C30.6318 52.3999 42.6169 50.672 42.6169 50.672C42.62 50.6717 42.6227 50.6711 42.6258 50.6705C43.6499 50.5072 44.6158 50.0742 45.4194 49.4189C45.4267 49.4128 45.4337 49.4067 45.4407 49.4006L53.1833 42.4368C54.0958 41.6266 54.2664 40.2548 53.5798 39.2459ZM52.4024 41.5631L44.668 48.5196C44.0278 49.0387 43.2593 49.382 42.4451 49.5126L30.4657 51.2396C30.463 51.2399 30.459 51.2405 30.4554 51.2412C30.4535 51.2415 30.4514 51.2418 30.4496 51.2421C30.0913 51.2985 29.7181 51.2747 29.34 51.1713L21.7347 48.2913V41.5997C21.7347 41.2759 21.4722 41.0138 21.1487 41.0138C20.8249 41.0138 20.5628 41.2759 20.5628 41.5997V49.9603C20.5628 50.0833 20.4627 50.1834 20.3397 50.1834H15.395C15.272 50.1834 15.1719 50.0833 15.1719 49.9603V34.863C15.1719 34.74 15.272 34.6399 15.395 34.6399H20.3397C20.4627 34.6399 20.5628 34.74 20.5628 34.863V38.9529C20.5628 39.2767 20.8253 39.5389 21.1487 39.5389C21.4725 39.5389 21.7347 39.2764 21.7347 38.9529V37.569C22.9917 37.6245 24.2283 37.9834 25.3275 38.6142C28.2898 40.3131 29.1172 40.4303 29.3891 40.4688C29.3995 40.4703 29.4095 40.4712 29.4199 40.4724L37.6746 41.1957C38.7629 41.3565 39.5972 42.2305 39.7062 43.3261L39.7373 43.6383L28.686 44.3207C28.6783 44.3201 28.6707 44.3195 28.664 44.3188C28.3057 44.2865 27.9822 44.1171 27.7524 43.8419C27.5452 43.5931 27.1757 43.5596 26.9272 43.7671C26.6785 43.9743 26.645 44.3439 26.8525 44.5923C27.2825 45.108 27.8892 45.4166 28.5596 45.4861C28.9216 45.524 40.3818 44.7726 40.3818 44.7726L42.6792 44.9017C42.8061 44.9091 42.9322 44.8743 43.0378 44.8035L50.8619 39.5673C51.4365 39.1812 52.2211 39.3326 52.6108 39.9051C52.967 40.4288 52.8785 41.1404 52.4024 41.5631Z" fill="#4971FF"/>
</svg>
