<svg width="68" height="68" viewBox="0 0 68 68" fill="none" xmlns="http://www.w3.org/2000/svg">
<rect width="68" height="68" rx="5" fill="#EFF6FE"/>
<g clip-path="url(#clip0)">
<path d="M38.5236 30.2845L32.5136 35.961L29.6292 32.9936C29.3095 32.6644 28.7829 32.6569 28.4541 32.9767C28.1249 33.2968 28.1174 33.823 28.4371 34.1522L31.8965 37.7034C32.2179 38.0268 32.7373 38.0379 33.072 37.7282L39.6825 31.4932C39.843 31.3418 39.9368 31.1327 39.943 30.9123C39.9492 30.6918 39.8674 30.4779 39.7157 30.3177C39.394 29.9833 38.8636 29.9686 38.5236 30.2845Z" fill="#4971FF"/>
<path d="M34.0641 21.5483C27.1954 21.5483 21.6104 27.1334 21.6104 34.0021C21.6104 40.8711 27.1954 46.4562 34.0641 46.4562C40.9331 46.4562 46.5182 40.8711 46.5182 34.0021C46.5182 27.1334 40.9331 21.5483 34.0641 21.5483ZM34.0641 44.789C28.1124 44.789 23.2775 39.9457 23.2775 34.0021C23.2775 28.0585 28.1124 23.2155 34.0641 23.2155C40.0217 23.2155 44.851 28.0448 44.851 34.0021C44.851 39.9594 40.0217 44.789 34.0641 44.789Z" fill="#4971FF"/>
<path d="M51.2028 29.4173L51.4779 24.4741C51.4971 24.1423 51.3167 23.8306 51.0194 23.6821L46.618 21.4565L44.3924 17.0551C44.241 16.7604 43.9313 16.581 43.6005 16.5966L38.6487 16.8636L34.5224 14.1375C34.2443 13.9542 33.8839 13.9542 33.6055 14.1375L29.4792 16.8636L24.5362 16.5885C24.2041 16.5689 23.8928 16.7493 23.7443 17.0469L21.5184 21.4484L17.1172 23.674C16.8222 23.8251 16.6431 24.1348 16.6588 24.4659L16.9336 29.4092L14.2078 33.5355C14.0245 33.8136 14.0245 34.174 14.2078 34.4524L16.9255 38.5869L16.6503 43.5301C16.6311 43.862 16.8112 44.1736 17.1088 44.3221L21.5102 46.5477L23.7359 50.9491C23.8869 51.2441 24.1966 51.4232 24.5278 51.4076L29.471 51.1325L33.5973 53.8582C33.8738 54.0474 34.2378 54.0474 34.5143 53.8582L38.6406 51.1325L43.5839 51.4076C43.9157 51.4268 44.227 51.2464 44.3758 50.9491L46.6014 46.5477L51.0028 44.3221C51.2975 44.1706 51.4769 43.8613 51.4613 43.5301L51.1862 38.5869L53.912 34.4606C54.0953 34.1825 54.0953 33.8217 53.912 33.5436L51.2028 29.4173ZM49.6522 37.9034C49.5506 38.0525 49.5033 38.2319 49.519 38.412L49.7772 43.0883L45.6177 45.1889C45.4591 45.2683 45.3305 45.3973 45.251 45.5558L43.1501 49.7154L38.4739 49.4571C38.2948 49.4506 38.118 49.4969 37.9652 49.5903L34.0639 52.1663L30.163 49.5903C30.0275 49.4988 29.868 49.4493 29.7045 49.4487H29.6628L24.9862 49.7072L22.8857 45.5474C22.8062 45.3888 22.6776 45.2602 22.5187 45.1807L18.3507 43.0883L18.6092 38.412C18.6158 38.2329 18.5692 38.0561 18.4757 37.9034L15.9001 34.0021L18.4757 30.1008C18.5777 29.952 18.6249 29.7723 18.6092 29.5925L18.3507 24.9159L22.5105 22.8153C22.6691 22.7359 22.7977 22.6073 22.8772 22.4487L24.9778 18.2889L29.6544 18.5474C29.8331 18.5536 30.0099 18.5073 30.163 18.4139L34.0639 15.8382L37.9652 18.4139C38.1144 18.5158 38.2941 18.563 38.4739 18.5474L43.1501 18.2889L45.251 22.4487C45.3305 22.6073 45.4591 22.7359 45.6177 22.8153L49.7772 24.9159L49.519 29.5925C49.5125 29.7713 49.559 29.9481 49.6522 30.1008L52.2282 34.0021L49.6522 37.9034Z" fill="#4971FF"/>
</g>
<defs>
<clipPath id="clip0">
<rect width="40" height="40" fill="white" transform="translate(14 14)"/>
</clipPath>
</defs>
</svg>
