<svg width="47" height="49" viewBox="0 0 47 49" fill="none" xmlns="http://www.w3.org/2000/svg">
<path d="M44.0261 23.2588H37.3807C36.7198 23.2588 36.0859 23.5213 35.6186 23.9887C35.1512 24.456 34.8887 25.0899 34.8887 25.7508C34.8887 26.4117 35.1512 27.0456 35.6186 27.5129C36.0859 27.9803 36.7198 28.2428 37.3807 28.2428H44.0261C44.687 28.2428 45.3208 27.9803 45.7882 27.5129C46.2555 27.0456 46.5181 26.4117 46.5181 25.7508C46.5181 25.0899 46.2555 24.456 45.7882 23.9887C45.3208 23.5213 44.687 23.2588 44.0261 23.2588Z" fill="#4971FF"/>
<path d="M12.7968 23.2588H11.6289V45.0805L11.9171 45.1719C12.7504 45.2467 13.5509 45.5326 14.243 46.0025C16.3121 47.4221 18.7629 48.1809 21.2722 48.1789H29.9253C29.3755 47.4642 29.0761 46.5885 29.073 45.6869C29.0748 44.7163 29.4164 43.7771 30.0386 43.0322C30.6607 42.2873 31.5241 41.7838 32.4787 41.6091C32.0654 41.0985 31.7806 40.4963 31.6482 39.8529C31.5158 39.2095 31.5397 38.5437 31.7178 37.9114C31.8959 37.2792 32.2231 36.6988 32.6719 36.2192C33.1207 35.7395 33.678 35.3745 34.2971 35.1548C33.9084 34.7286 33.6139 34.2253 33.4329 33.6776C33.2519 33.13 33.1884 32.5503 33.2466 31.9764C33.3047 31.4026 33.4833 30.8474 33.7705 30.3472C34.0577 29.847 34.4471 29.413 34.9134 29.0735C34.4709 28.751 34.0974 28.3431 33.8151 27.8739C33.5329 27.4047 33.3476 26.8836 33.2701 26.3415C33.1927 25.7995 33.2247 25.2473 33.3643 24.7179C33.5039 24.1884 33.7482 23.6922 34.0828 23.2588H29.7658L29.2209 26.2575C28.9077 27.9801 27.9998 29.5381 26.6556 30.6599C25.3114 31.7817 23.6161 32.3962 21.8653 32.3961H20.7663C20.546 32.3961 20.3347 32.3086 20.1789 32.1528C20.0231 31.9971 19.9356 31.7858 19.9356 31.5655C19.9356 31.3452 20.0231 31.1339 20.1789 30.9781C20.3347 30.8223 20.546 30.7348 20.7663 30.7348H21.8653C23.2272 30.735 24.5459 30.2571 25.5915 29.3845C26.6372 28.5119 27.3433 27.3 27.5869 25.9601L28.2515 22.3051L29.2109 14.6331C29.2834 14.0486 29.2309 13.4555 29.0567 12.8929C28.8825 12.3303 28.5907 11.8113 28.2006 11.3701C27.8105 10.9289 27.331 10.5758 26.794 10.334C26.257 10.0923 25.6747 9.96754 25.0858 9.96802H24.7228C24.5202 9.96787 24.3246 10.0418 24.1726 10.1758C24.0207 10.3098 23.923 10.4947 23.8979 10.6957L23.51 13.7991C23.1802 16.409 21.9105 18.8093 19.9385 20.5506C17.9666 22.2918 15.4275 23.2547 12.7968 23.2588Z" fill="#4971FF"/>
<path d="M39.8718 43.1949H33.2264C32.5655 43.1949 31.9316 43.4574 31.4643 43.9248C30.9969 44.3921 30.7344 45.026 30.7344 45.6869C30.7344 46.3478 30.9969 46.9817 31.4643 47.449C31.9316 47.9164 32.5655 48.1789 33.2264 48.1789H39.8718C40.5327 48.1789 41.1665 47.9164 41.6339 47.449C42.1012 46.9817 42.3638 46.3478 42.3638 45.6869C42.3638 45.026 42.1012 44.3921 41.6339 43.9248C41.1665 43.4574 40.5327 43.1949 39.8718 43.1949Z" fill="#4971FF"/>
<path d="M42.3659 36.5495H35.7205C35.0596 36.5495 34.4258 36.8121 33.9584 37.2794C33.4911 37.7467 33.2285 38.3806 33.2285 39.0415C33.2285 39.7024 33.4911 40.3363 33.9584 40.8036C34.4258 41.271 35.0596 41.5335 35.7205 41.5335H42.3659C43.0268 41.5335 43.6607 41.271 44.128 40.8036C44.5954 40.3363 44.8579 39.7024 44.8579 39.0415C44.8579 38.3806 44.5954 37.7467 44.128 37.2794C43.6607 36.8121 43.0268 36.5495 42.3659 36.5495Z" fill="#4971FF"/>
<path d="M9.96805 48.1789V19.9361H0V48.1789H9.96805ZM4.98403 39.8722C5.64119 39.8722 6.2836 40.0671 6.83001 40.4322C7.37642 40.7973 7.8023 41.3162 8.05379 41.9233C8.30527 42.5305 8.37107 43.1986 8.24287 43.8431C8.11466 44.4876 7.7982 45.0797 7.33352 45.5444C6.86883 46.0091 6.27679 46.3255 5.63225 46.4537C4.98771 46.5819 4.31963 46.5161 3.71249 46.2646C3.10535 46.0132 2.58642 45.5873 2.22132 45.0409C1.85621 44.4945 1.66134 43.852 1.66134 43.1949C1.66134 42.3137 2.01141 41.4685 2.63453 40.8454C3.25766 40.2223 4.1028 39.8722 4.98403 39.8722Z" fill="#4971FF"/>
<path d="M44.0261 29.9042H37.3807C36.7198 29.9042 36.0859 30.1667 35.6186 30.6341C35.1512 31.1014 34.8887 31.7353 34.8887 32.3962C34.8887 33.0571 35.1512 33.691 35.6186 34.1583C36.0859 34.6256 36.7198 34.8882 37.3807 34.8882H44.0261C44.687 34.8882 45.3208 34.6256 45.7882 34.1583C46.2555 33.691 46.5181 33.0571 46.5181 32.3962C46.5181 31.7353 46.2555 31.1014 45.7882 30.6341C45.3208 30.1667 44.687 29.9042 44.0261 29.9042Z" fill="#4971FF"/>
<path d="M4.98556 44.8563C5.90309 44.8563 6.6469 44.1124 6.6469 43.1949C6.6469 42.2774 5.90309 41.5336 4.98556 41.5336C4.06803 41.5336 3.32422 42.2774 3.32422 43.1949C3.32422 44.1124 4.06803 44.8563 4.98556 44.8563Z" fill="#4971FF"/>
<path d="M25.7506 6.64537C25.9709 6.64537 26.1822 6.55785 26.338 6.40207C26.4937 6.24629 26.5813 6.035 26.5813 5.8147V0.830671C26.5813 0.610363 26.4937 0.399079 26.338 0.243298C26.1822 0.0875168 25.9709 0 25.7506 0C25.5303 0 25.319 0.0875168 25.1632 0.243298C25.0074 0.399079 24.9199 0.610363 24.9199 0.830671V5.8147C24.9199 6.035 25.0074 6.24629 25.1632 6.40207C25.319 6.55785 25.5303 6.64537 25.7506 6.64537Z" fill="#4971FF"/>
<path d="M18.7032 9.0784C18.7798 9.15774 18.8715 9.22102 18.9729 9.26456C19.0742 9.30809 19.1832 9.33101 19.2935 9.33197C19.4038 9.33292 19.5132 9.31191 19.6153 9.27014C19.7173 9.22837 19.8101 9.16669 19.8881 9.0887C19.9661 9.01071 20.0278 8.91796 20.0695 8.81587C20.1113 8.71379 20.1323 8.6044 20.1314 8.49411C20.1304 8.38381 20.1075 8.27481 20.0639 8.17347C20.0204 8.07212 19.9571 7.98046 19.8778 7.90383L16.3541 4.3793C16.1983 4.22343 15.987 4.13582 15.7667 4.13574C15.5463 4.13566 15.335 4.22312 15.1791 4.37888C15.0232 4.53464 14.9356 4.74594 14.9355 4.96629C14.9355 5.18664 15.0229 5.398 15.1787 5.55387L18.7032 9.0784Z" fill="#4971FF"/>
<path d="M11.6295 15.7827H16.6135C16.8338 15.7827 17.0451 15.6952 17.2009 15.5394C17.3567 15.3837 17.4442 15.1724 17.4442 14.9521C17.4442 14.7318 17.3567 14.5205 17.2009 14.3647C17.0451 14.2089 16.8338 14.1214 16.6135 14.1214H11.6295C11.4092 14.1214 11.1979 14.2089 11.0421 14.3647C10.8863 14.5205 10.7988 14.7318 10.7988 14.9521C10.7988 15.1724 10.8863 15.3837 11.0421 15.5394C11.1979 15.6952 11.4092 15.7827 11.6295 15.7827Z" fill="#4971FF"/>
<path d="M32.2114 9.32179C32.4316 9.32174 32.6429 9.23419 32.7986 9.0784L36.3232 5.55387C36.4789 5.398 36.5664 5.18664 36.5663 4.96629C36.5662 4.74594 36.4786 4.53464 36.3228 4.37888C36.1669 4.22312 35.9555 4.13566 35.7352 4.13574C35.5148 4.13582 35.3035 4.22343 35.1478 4.3793L31.6241 7.90383C31.5079 8.02001 31.4288 8.168 31.3968 8.32911C31.3648 8.49022 31.3812 8.65722 31.4441 8.80898C31.5069 8.96074 31.6134 9.09046 31.75 9.18174C31.8865 9.27302 32.0471 9.32175 32.2114 9.32179Z" fill="#4971FF"/>
<path d="M34.0566 14.9521C34.0566 15.1724 34.1442 15.3837 34.2999 15.5394C34.4557 15.6952 34.667 15.7827 34.8873 15.7827H39.8713C40.0916 15.7827 40.3029 15.6952 40.4587 15.5394C40.6145 15.3837 40.702 15.1724 40.702 14.9521C40.702 14.7318 40.6145 14.5205 40.4587 14.3647C40.3029 14.2089 40.0916 14.1214 39.8713 14.1214H34.8873C34.667 14.1214 34.4557 14.2089 34.2999 14.3647C34.1442 14.5205 34.0566 14.7318 34.0566 14.9521Z" fill="#4971FF"/>
</svg>
