<svg width="62" height="41" viewBox="0 0 62 41" fill="none" xmlns="http://www.w3.org/2000/svg">
<path d="M62 27.1625C62 28.7 58.9 29.725 55.2833 30.2375C52.9583 25.8813 48.3083 22.55 42.8833 20.2437C43.4 19.475 43.9167 18.9625 44.4333 18.1938H46.5C54.5083 17.9375 62 22.8063 62 27.1625ZM17.5667 17.9375H15.5C7.49167 17.9375 0 22.8063 0 27.1625C0 28.7 3.1 29.725 6.71667 30.2375C9.04167 25.8813 13.6917 22.55 19.1167 20.2437L17.5667 17.9375ZM31 20.5C36.6833 20.5 41.3333 15.8875 41.3333 10.25C41.3333 4.6125 36.6833 0 31 0C25.3167 0 20.6667 4.6125 20.6667 10.25C20.6667 15.8875 25.3167 20.5 31 20.5ZM31 23.0625C20.4083 23.0625 10.3333 29.725 10.3333 35.875C10.3333 41 31 41 31 41C31 41 51.6667 41 51.6667 35.875C51.6667 29.725 41.5917 23.0625 31 23.0625ZM45.725 15.375H46.5C50.8917 15.375 54.25 12.0437 54.25 7.6875C54.25 3.33125 50.8917 0 46.5 0C45.2083 0 44.175 0.25625 43.1417 0.76875C45.2083 3.33125 46.5 6.6625 46.5 10.25C46.5 12.0437 46.2417 13.8375 45.725 15.375ZM15.5 15.375H16.275C15.7583 13.8375 15.5 12.0437 15.5 10.25C15.5 6.6625 16.7917 3.33125 18.8583 0.76875C17.825 0.25625 16.7917 0 15.5 0C11.1083 0 7.75 3.33125 7.75 7.6875C7.75 12.0437 11.1083 15.375 15.5 15.375Z" fill="#4971FF"/>
</svg>
