<svg width="54" height="54" viewBox="0 0 54 54" fill="none" xmlns="http://www.w3.org/2000/svg">
<path d="M42.6094 8.4375H36.2812V2.53125H17.7188V16.0312H36.2812V10.125H42.6094C47.0292 10.125 50.625 13.7208 50.625 18.1406C50.625 20.2768 49.7895 22.2885 48.2734 23.8046C46.7564 25.3211 44.7451 26.1562 42.6094 26.1562H36.5977L38.8125 20.25H20.25L18.0352 26.1562H11.3906C6.04056 26.1562 1.6875 30.5089 1.6875 35.8594C1.6875 38.4467 2.69852 40.8819 4.53351 42.7165C6.36933 44.5519 8.80417 45.5625 11.3906 45.5625H17.7188V51.4688H36.2812V45.5625H39.7234C40.1337 48.4236 42.5879 50.625 45.5625 50.625C48.8244 50.625 51.4688 47.9807 51.4688 44.7188C51.4688 41.4568 48.8244 38.8125 45.5625 38.8125C42.5879 38.8125 40.1337 41.0138 39.7234 43.875H36.2812V37.9688H17.7188V43.875H11.3906C9.25488 43.875 7.24356 43.0399 5.72662 41.5234C4.21051 40.0073 3.375 37.9955 3.375 35.8594C3.375 31.4396 6.97083 27.8438 11.3906 27.8438H17.4023L15.1875 33.75H33.75L35.9648 27.8438H42.6094C45.1958 27.8438 47.6307 26.8331 49.4665 24.9977C51.3015 23.1632 52.3125 20.7279 52.3125 18.1406C52.3125 12.7901 47.9594 8.4375 42.6094 8.4375ZM33.75 13.5H20.25V11.8125H33.75V13.5ZM33.75 10.125H20.25V8.4375H33.75V10.125ZM33.75 6.75H20.25V5.0625H33.75V6.75ZM43.6278 44.1222L44.7188 45.2131L47.4972 42.4347L48.6903 43.6278L44.7188 47.5994L42.4347 45.3153L43.6278 44.1222ZM20.25 40.5H33.75V42.1875H20.25V40.5ZM20.25 43.875H33.75V45.5625H20.25V43.875ZM20.25 47.25H33.75V48.9375H20.25V47.25ZM31.2188 31.2188H19.4062V29.5312H31.2188V31.2188ZM32.9062 27.8438H21.0938V26.1562H32.9062V27.8438ZM34.5938 24.4688H22.7812V22.7812H34.5938V24.4688Z" fill="#4971FF"/>
</svg>
