<svg width="10" height="12" viewBox="0 0 10 12" fill="none" xmlns="http://www.w3.org/2000/svg">
<path d="M4.875 0C7.5675 0 9.75 2.1825 9.75 4.875C9.75 6.935 8.3025 9.18 5.445 11.634C5.28611 11.7705 5.08353 11.8455 4.87406 11.8453C4.6646 11.8451 4.46215 11.7698 4.3035 11.633L4.1145 11.469C1.3835 9.079 0 6.889 0 4.875C0 2.1825 2.1825 0 4.875 0ZM4.875 3C4.37772 3 3.90081 3.19754 3.54917 3.54917C3.19754 3.90081 3 4.37772 3 4.875C3 5.37228 3.19754 5.84919 3.54917 6.20083C3.90081 6.55246 4.37772 6.75 4.875 6.75C5.37228 6.75 5.8492 6.55246 6.20083 6.20083C6.55246 5.84919 6.75 5.37228 6.75 4.875C6.75 4.37772 6.55246 3.90081 6.20083 3.54917C5.8492 3.19754 5.37228 3 4.875 3Z" fill="#4971FF"/>
</svg>
