<svg width="68" height="68" viewBox="0 0 68 68" fill="none" xmlns="http://www.w3.org/2000/svg">
<rect width="68" height="68" rx="5" fill="#EFF6FE"/>
<path d="M17.8214 17.7427C18.2573 17.7427 18.6107 17.3894 18.6107 16.9535C18.6107 16.5177 18.2573 16.1643 17.8214 16.1643C17.3856 16.1643 17.0322 16.5177 17.0322 16.9535C17.0322 17.3894 17.3856 17.7427 17.8214 17.7427Z" fill="#4971FF"/>
<path d="M21.0568 17.7427C21.4927 17.7427 21.846 17.3894 21.846 16.9535C21.846 16.5177 21.4927 16.1643 21.0568 16.1643C20.6209 16.1643 20.2676 16.5177 20.2676 16.9535C20.2676 17.3894 20.6209 17.7427 21.0568 17.7427Z" fill="#4971FF"/>
<path d="M24.2921 17.7427C24.728 17.7427 25.0814 17.3894 25.0814 16.9535C25.0814 16.5177 24.728 16.1643 24.2921 16.1643C23.8563 16.1643 23.5029 16.5177 23.5029 16.9535C23.5029 17.3894 23.8563 17.7427 24.2921 17.7427Z" fill="#4971FF"/>
<path d="M51.8516 14H16.1484C14.9638 14 14 14.9638 14 16.1484V34.2002C14 34.5238 14.2623 34.7862 14.5859 34.7862C14.9095 34.7862 15.1719 34.5238 15.1719 34.2002V19.907H52.8281V25.5984C52.8281 25.922 53.0905 26.1843 53.4141 26.1843C53.7377 26.1843 54 25.922 54 25.5984V16.1484C54 14.9638 53.0363 14 51.8516 14ZM15.1719 18.7352V16.1484C15.1719 15.6099 15.6099 15.1719 16.1484 15.1719H51.8516C52.3901 15.1719 52.8281 15.6099 52.8281 16.1484V18.7352H15.1719Z" fill="#4971FF"/>
<path d="M53.4141 27.7565C53.0905 27.7565 52.8281 28.0188 52.8281 28.3424V51.8515C52.8281 52.3901 52.3901 52.8281 51.8516 52.8281H16.1484C15.6099 52.8281 15.1719 52.3901 15.1719 51.8515V36.9346C15.1719 36.611 14.9095 36.3487 14.5859 36.3487C14.2623 36.3487 14 36.611 14 36.9346V51.8515C14 53.0362 14.9638 54 16.1484 54H51.8516C53.0363 54 54 53.0362 54 51.8515V28.3424C54 28.0188 53.7377 27.7565 53.4141 27.7565Z" fill="#4971FF"/>
<path d="M32.1061 21.7341H17.585C17.2614 21.7341 16.999 21.9964 16.999 22.32V50.3362C16.999 50.6598 17.2614 50.9221 17.585 50.9221H32.1061C32.4296 50.9221 32.692 50.6598 32.692 50.3362V50.2264C32.692 50.2263 32.692 50.2263 32.692 50.2262V22.3199C32.692 21.9964 32.4296 21.7341 32.1061 21.7341ZM18.1709 24.7238L24.1856 36.3281L18.1709 47.9324V24.7238ZM18.5486 22.9059H31.1424L24.8455 35.0549L18.5486 22.9059ZM24.8455 37.6014L31.1424 49.7503H18.5486L24.8455 37.6014ZM25.5054 36.3281L31.52 24.7238V47.9325L25.5054 36.3281Z" fill="#4971FF"/>
<path d="M35.8936 37.427H50.4146C50.7382 37.427 51.0006 37.1647 51.0006 36.8411V22.32C51.0006 21.9964 50.7382 21.7341 50.4146 21.7341H35.8936C35.57 21.7341 35.3076 21.9964 35.3076 22.32V36.8411C35.3076 37.1647 35.57 37.427 35.8936 37.427ZM49.8287 35.4265L43.9828 29.5806L49.8287 23.7346V35.4265ZM49 36.2552H37.3082L43.1541 30.4092L49 36.2552ZM43.1541 28.7519L37.3082 22.9059H49.0001L43.1541 28.7519ZM42.3255 29.5806L36.4796 35.4265V23.7346L42.3255 29.5806Z" fill="#4971FF"/>
<path d="M35.8936 40.1102H50.4146C50.7382 40.1102 51.0006 39.8479 51.0006 39.5243C51.0006 39.2007 50.7382 38.9384 50.4146 38.9384H35.8936C35.57 38.9384 35.3076 39.2007 35.3076 39.5243C35.3076 39.8479 35.57 40.1102 35.8936 40.1102Z" fill="#4971FF"/>
<path d="M35.8936 43.267H50.4146C50.7382 43.267 51.0006 43.0047 51.0006 42.6811C51.0006 42.3575 50.7382 42.0952 50.4146 42.0952H35.8936C35.57 42.0952 35.3076 42.3575 35.3076 42.6811C35.3076 43.0047 35.57 43.267 35.8936 43.267Z" fill="#4971FF"/>
<path d="M35.8936 46.4238H44.0222C44.3457 46.4238 44.6081 46.1614 44.6081 45.8378C44.6081 45.5142 44.3457 45.2519 44.0222 45.2519H35.8936C35.57 45.2519 35.3076 45.5142 35.3076 45.8378C35.3076 46.1614 35.57 46.4238 35.8936 46.4238Z" fill="#4971FF"/>
</svg>
