<svg width="68" height="68" viewBox="0 0 68 68" fill="none" xmlns="http://www.w3.org/2000/svg">
<rect width="68" height="68" rx="5" fill="#EFF6FE"/>
<path d="M19.6318 32.1182H23.6107C23.9343 32.1182 24.1967 31.8559 24.1967 31.5322C24.1967 31.2086 23.9343 30.9463 23.6107 30.9463H19.6318C19.3082 30.9463 19.0459 31.2086 19.0459 31.5322C19.0459 31.8559 19.3082 32.1182 19.6318 32.1182Z" fill="#4971FF"/>
<path d="M53.411 30.6016C53.7346 30.6016 53.997 30.3393 53.997 30.0156V16.9297C53.997 15.3142 52.6827 14 51.0673 14H45.7987C45.4752 14 45.2128 14.2623 45.2128 14.5859C45.2128 14.9096 45.4752 15.1719 45.7987 15.1719H51.0673C52.0366 15.1719 52.8251 15.9605 52.8251 16.9297V18.4677H40.0176V16.9297C40.0176 15.9605 40.8061 15.1719 41.7754 15.1719H43.0645C43.388 15.1719 43.6504 14.9096 43.6504 14.5859C43.6504 14.2623 43.388 14 43.0645 14H41.7754C40.1599 14 38.8457 15.3142 38.8457 16.9297V25.7969H37.8691C35.3921 25.7969 33.377 27.812 33.377 30.2891V37.4766C33.377 39.3074 31.8875 40.7969 30.0566 40.7969H29.3095V31.7734C29.3095 30.158 27.9952 28.8438 26.3798 28.8438H16.9316C15.3162 28.8438 14.002 30.158 14.002 31.7734V51.0703C14.002 52.6858 15.3162 54 16.9316 54H17.3613C17.6849 54 17.9473 53.7377 17.9473 53.4141C17.9473 53.0904 17.6849 52.8281 17.3613 52.8281H16.9316C15.9623 52.8281 15.1738 52.0395 15.1738 51.0703V50.1064H28.1376V51.0703C28.1376 52.0395 27.3491 52.8281 26.3798 52.8281H20.0957C19.7721 52.8281 19.5098 53.0904 19.5098 53.4141C19.5098 53.7377 19.7721 54 20.0957 54H26.3798C27.9952 54 29.3095 52.6858 29.3095 51.0703V41.9688H30.0566C32.5337 41.9688 34.5488 39.9536 34.5488 37.4766V30.2891C34.5488 28.4582 36.0383 26.9688 37.8691 26.9688H38.8457V36.3828C38.8457 37.9983 40.1599 39.3125 41.7754 39.3125H51.0673C52.6828 39.3125 53.997 37.9983 53.997 36.3828V32.75C53.997 32.4263 53.7347 32.1641 53.4111 32.1641C53.0875 32.1641 52.8252 32.4263 52.8252 32.75V34.2217H40.0176V26.9688H44.9702L43.9002 28.0387C43.6713 28.2677 43.6713 28.6386 43.9002 28.8674C44.0145 28.9818 44.1645 29.039 44.3145 29.039C44.4644 29.039 44.6144 28.9818 44.7287 28.8674L46.7991 26.7971C47.0255 26.5787 47.0255 26.1868 46.7991 25.9684L44.7287 23.8981C44.4999 23.6694 44.1289 23.6694 43.9002 23.8981C43.6713 24.127 43.6713 24.498 43.9002 24.7268L44.9702 25.7969H40.0176V19.6395H52.8252V30.0156C52.8251 30.3393 53.0874 30.6016 53.411 30.6016ZM16.9316 30.0156H26.3798C27.3491 30.0156 28.1376 30.8042 28.1376 31.7734V33.2823H15.1738V31.7734C15.1738 30.8042 15.9623 30.0156 16.9316 30.0156ZM28.1376 48.9345H15.1738V34.4542H28.1376V40.7969H25.0629C24.9013 39.9484 24.1545 39.3049 23.2598 39.3049H23.0645C22.7409 39.3049 22.4785 39.5672 22.4785 39.8909C22.4785 40.2145 22.7409 40.4768 23.0645 40.4768H23.2598C23.6259 40.4768 23.9238 40.7747 23.9238 41.1409V41.6247C23.9238 41.9909 23.6259 42.2887 23.2598 42.2887H19.9785C19.6123 42.2887 19.3145 41.9909 19.3145 41.6247V41.1409C19.3145 40.7747 19.6123 40.4768 19.9785 40.4768H20.355C20.6786 40.4768 20.9409 40.2145 20.9409 39.8909C20.9409 39.5672 20.6786 39.3049 20.355 39.3049H19.9785C18.9662 39.3049 18.1426 40.1285 18.1426 41.1409V41.6247C18.1426 42.637 18.9662 43.4606 19.9785 43.4606H23.2598C24.1545 43.4606 24.9013 42.8171 25.0629 41.9687H28.1376V48.9345ZM52.8251 35.3936V36.3828C52.8251 37.352 52.0366 38.1406 51.0673 38.1406H41.7754C40.8061 38.1406 40.0176 37.352 40.0176 36.3828V35.3936H52.8251Z" fill="#4971FF"/>
<path d="M44.4199 17.2881H48.3548C48.6784 17.2881 48.9408 17.0258 48.9408 16.7021C48.9408 16.3785 48.6784 16.1162 48.3548 16.1162H44.4199C44.0963 16.1162 43.834 16.3785 43.834 16.7021C43.834 17.0258 44.0963 17.2881 44.4199 17.2881Z" fill="#4971FF"/>
</svg>
