<svg width="68" height="68" viewBox="0 0 68 68" fill="none" xmlns="http://www.w3.org/2000/svg">
<rect width="68" height="68" rx="5" fill="#EFF6FE"/>
<g clip-path="url(#clip0)">
<path d="M40.1404 53.9999C39.0009 53.9999 37.9521 53.6788 37.0245 53.0463L36.968 53.0057C36.9446 52.9879 36.1762 52.4175 34.8698 52.4175C34.052 52.4175 33.1961 52.6434 32.3243 53.0888C32.0597 53.2506 30.839 53.9377 29.2802 53.9377C28.0016 53.9377 26.8361 53.4949 25.8159 52.6212C24.2005 51.238 18.8881 46.0537 18.3615 37.4173C18.1217 33.4848 19.4033 29.7205 21.8771 27.09C24.1212 24.7031 27.095 23.6327 29.9362 24.2012C30.0009 24.2108 32.1124 24.5647 34.1776 25.7404C35.2734 25.1916 37.9946 24.0013 40.9576 24.0013C44.4973 24.0013 47.249 25.7182 48.9145 28.9654L49.292 29.702L48.6156 30.1792C48.5801 30.2039 44.9446 32.8192 44.9578 35.9821C44.9648 37.7065 46.084 39.3594 48.2856 40.8948C48.9754 41.3751 49.4506 42.1218 49.5971 42.9511C50.3058 45.5404 45.4178 51.8743 42.4891 53.5176L42.4174 53.5544C42.3173 53.6002 41.4011 53.9999 40.1404 53.9999ZM38.1158 51.4861C38.7173 51.8902 39.3981 52.0946 40.1404 52.0946C40.8859 52.0946 41.4659 51.8852 41.6048 51.8306C44.623 50.0998 48.0643 44.5393 47.7662 43.4664L47.7288 43.3128C47.6749 42.967 47.4813 42.6555 47.1977 42.4576C44.4542 40.5446 43.0603 38.3658 43.0546 35.9808C43.0463 32.7837 45.5836 30.2281 46.8392 29.159C45.4967 27.0005 43.5215 25.9067 40.9577 25.9067C37.6945 25.9067 34.6529 27.6407 34.6224 27.6584L34.1218 27.9477L33.6339 27.6362C31.7578 26.437 29.6183 26.078 29.5968 26.0748C29.1787 25.9916 28.7878 25.9529 28.3995 25.9529C26.5678 25.9529 24.7437 26.8203 23.2634 28.395C21.1787 30.6118 20.0569 33.9409 20.2611 37.3011C20.7421 45.1896 25.5818 49.9138 27.0538 51.174C27.7194 51.7437 28.4686 52.0331 29.2802 52.0331C30.4292 52.0331 31.3263 51.4678 31.3345 51.4627L31.4183 51.4131C32.5737 50.8155 33.7348 50.5128 34.8699 50.5128C36.7149 50.5128 37.8741 51.304 38.1158 51.4861Z" fill="#4971FF"/>
<path d="M34.0202 24.1988C33.8109 24.1988 33.6047 24.1296 33.4365 23.9989C33.2113 23.8238 33.0761 23.5567 33.0691 23.2718C33.0615 23.006 32.9841 16.7228 40.8173 14.051C41.0908 13.9577 41.3909 13.9933 41.6345 14.1475C41.8775 14.3017 42.0381 14.558 42.0704 14.8447C42.0793 14.9183 42.8045 22.2173 34.2321 24.1747C34.1617 24.1906 34.0906 24.1988 34.0202 24.1988ZM40.1219 16.3751C36.6538 17.9759 35.5194 20.4351 35.1496 21.9331C38.898 20.6134 39.8814 17.9759 40.1219 16.3751Z" fill="#4971FF"/>
</g>
<defs>
<clipPath id="clip0">
<rect width="40" height="40" fill="white" transform="translate(14 14)"/>
</clipPath>
</defs>
</svg>
