<svg width="68" height="68" viewBox="0 0 68 68" fill="none" xmlns="http://www.w3.org/2000/svg">
<rect width="68" height="68" rx="5" fill="#EFF6FE"/>
<g clip-path="url(#clip0)">
<path d="M38.8137 17.9838L40.566 15.0631C40.7653 14.7305 40.6579 14.2997 40.3253 14.1004C39.9919 13.9004 39.5618 14.0077 39.3625 14.3411L37.5134 17.4231C36.4124 17.0315 35.2334 16.807 33.9998 16.807C32.7661 16.807 31.5872 17.0315 30.4861 17.4231L28.6371 14.3411C28.4378 14.0077 28.0069 13.9011 27.6743 14.1004C27.3416 14.2997 27.2343 14.7305 27.4336 15.0631L29.1858 17.9838C25.7985 19.7346 23.4736 23.2644 23.4736 27.3338C23.4736 27.7219 23.788 28.0356 24.1754 28.0356H43.8242C44.2115 28.0356 44.5259 27.7219 44.5259 27.3338C44.5252 23.2651 42.201 19.7353 38.8137 17.9838ZM24.9038 26.6321C25.2631 21.9283 29.2055 18.2112 33.9998 18.2112C38.7941 18.2112 42.7365 21.9283 43.0957 26.6321H24.9038Z" fill="#4971FF"/>
<path d="M38.8961 21.9746H37.9712C37.7158 21.9746 37.5088 22.1816 37.5088 22.4371V23.362C37.5088 23.6174 37.7158 23.8244 37.9712 23.8244H38.8968C39.1523 23.8244 39.3593 23.6174 39.3593 23.362V22.4371C39.3593 22.1816 39.1516 21.9746 38.8961 21.9746Z" fill="#4971FF"/>
<path d="M30.0287 21.9746H29.1031C28.8476 21.9746 28.6406 22.1816 28.6406 22.4371V23.362C28.6406 23.6174 28.8476 23.8244 29.1031 23.8244H30.0287C30.2841 23.8244 30.4911 23.6174 30.4911 23.362V22.4371C30.4911 22.1816 30.2841 21.9746 30.0287 21.9746Z" fill="#4971FF"/>
<path d="M43.8242 28.7373H24.1754C23.788 28.7373 23.4736 29.051 23.4736 29.439V43.5939C23.4736 45.4626 24.9957 46.9826 26.8659 46.9826H27.6841V51.1973C27.6841 52.7425 28.943 54 30.4911 54C32.0391 54 33.298 52.7425 33.298 51.1973V46.9826H34.7015V51.1973C34.7015 52.7425 35.9604 54 37.5085 54C39.0565 54 40.3154 52.7425 40.3154 51.1973V46.9826H41.1337C43.0045 46.9826 44.5259 45.4626 44.5259 43.5939V29.439C44.5259 29.051 44.2122 28.7373 43.8242 28.7373ZM43.1224 43.5939C43.1224 44.6886 42.2305 45.5791 41.1337 45.5791H39.6137C39.2263 45.5791 38.912 45.8928 38.912 46.2809V51.1973C38.912 51.9692 38.2825 52.5965 37.5085 52.5965C36.7345 52.5965 36.105 51.9685 36.105 51.1973V46.2809C36.105 45.8928 35.7906 45.5791 35.4032 45.5791H32.5963C32.2089 45.5791 31.8945 45.8928 31.8945 46.2809V51.1973C31.8945 51.9692 31.2651 52.5965 30.4911 52.5965C29.717 52.5965 29.0876 51.9685 29.0876 51.1973V46.2809C29.0876 45.8928 28.7732 45.5791 28.3858 45.5791H26.8666C25.7697 45.5791 24.8771 44.6879 24.8771 43.5939V30.1408H43.1224V43.5939Z" fill="#4971FF"/>
<path d="M47.6836 28.7373C46.3293 28.7373 45.2275 29.8404 45.2275 31.1962V41.015C45.2275 42.3708 46.3293 43.4739 47.6836 43.4739C49.038 43.4739 50.1397 42.3708 50.1397 41.015V31.1962C50.1397 29.8404 49.038 28.7373 47.6836 28.7373ZM48.7362 41.015C48.7362 41.5967 48.264 42.0704 47.6836 42.0704C47.1033 42.0704 46.631 41.5967 46.631 41.015V31.1962C46.631 30.6145 47.1033 30.1408 47.6836 30.1408C48.264 30.1408 48.7362 30.6145 48.7362 31.1962V41.015Z" fill="#4971FF"/>
<path d="M20.3155 28.7373C18.9611 28.7373 17.8594 29.8404 17.8594 31.1962V41.015C17.8594 42.3708 18.9611 43.4739 20.3155 43.4739C21.6698 43.4739 22.7716 42.3708 22.7716 41.015V31.1962C22.7716 29.8404 21.6698 28.7373 20.3155 28.7373ZM21.3681 41.015C21.3681 41.5967 20.8958 42.0704 20.3155 42.0704C19.7351 42.0704 19.2629 41.5967 19.2629 41.015V31.1962C19.2629 30.6145 19.7351 30.1408 20.3155 30.1408C20.8958 30.1408 21.3681 30.6145 21.3681 31.1962V41.015Z" fill="#4971FF"/>
</g>
<defs>
<clipPath id="clip0">
<rect width="40" height="40" fill="white" transform="translate(14 14)"/>
</clipPath>
</defs>
</svg>
