<svg width="55" height="51" viewBox="0 0 55 51" fill="none" xmlns="http://www.w3.org/2000/svg">
<path d="M2.38725 17.8832L25.9214 48.4079C26.0925 48.6309 26.3125 48.8115 26.5645 48.9358C26.8166 49.0601 27.0938 49.1248 27.3748 49.1248C27.6558 49.1248 27.9331 49.0601 28.1851 48.9358C28.4371 48.8115 28.6572 48.6309 28.8282 48.4079L52.3624 17.8832C52.5938 17.5819 52.728 17.2173 52.7473 16.8379C52.7665 16.4585 52.6698 16.0823 52.47 15.7591L44.4871 2.8734C44.3228 2.60673 44.093 2.38651 43.8195 2.23364C43.5461 2.08078 43.2382 2.00035 42.9249 2H11.8247C11.5115 2.00035 11.2035 2.08078 10.9301 2.23364C10.6567 2.38651 10.4269 2.60673 10.2626 2.8734L2.27964 15.7591C2.07987 16.0823 1.98318 16.4585 2.0024 16.8379C2.02162 17.2173 2.15585 17.5819 2.38725 17.8832V17.8832Z" stroke="#4971FF" stroke-width="3" stroke-linecap="round" stroke-linejoin="round"/>
<path d="M3.8125 18.5H50.9375" stroke="#4971FF" stroke-width="3" stroke-linecap="round" stroke-linejoin="round"/>
<path d="M43.6875 5.8125L38.25 18.5L27.375 4" stroke="#8000FF" stroke-width="3" stroke-linecap="round" stroke-linejoin="round"/>
<path d="M11.0625 5.8125L16.5 18.5L27.375 4" stroke="#8000FF" stroke-width="3" stroke-linecap="round" stroke-linejoin="round"/>
<path d="M27.375 49.3125L16.5 18.5" stroke="#4971FF" stroke-width="3" stroke-linecap="round" stroke-linejoin="round"/>
<path d="M27.375 49.3125L38.25 18.5" stroke="#4971FF" stroke-width="3" stroke-linecap="round" stroke-linejoin="round"/>
</svg>
