<svg width="68" height="68" viewBox="0 0 68 68" fill="none" xmlns="http://www.w3.org/2000/svg">
<rect width="68" height="68" rx="5" fill="#EFF6FE"/>
<g clip-path="url(#clip0)">
<path d="M48.891 23.7181L39.5163 14.3434C39.2974 14.1245 38.9988 14 38.6875 14H22.2812C20.3427 14 18.7656 15.5771 18.7656 17.5156V50.4844C18.7656 52.4229 20.3427 54 22.2812 54H45.7188C47.6573 54 49.2344 52.4229 49.2344 50.4844V24.5469C49.2344 24.2273 49.1002 23.9273 48.891 23.7181ZM39.8594 18.001L45.2334 23.375H41.0312C40.3851 23.375 39.8594 22.8493 39.8594 22.2031V18.001ZM45.7188 51.6562H22.2812C21.6351 51.6562 21.1094 51.1305 21.1094 50.4844V17.5156C21.1094 16.8695 21.6351 16.3438 22.2812 16.3438H37.5156V22.2031C37.5156 24.1416 39.0927 25.7188 41.0312 25.7188H46.8906V50.4844C46.8906 51.1305 46.3649 51.6562 45.7188 51.6562Z" fill="#4971FF"/>
<path d="M41.0312 30.5625H26.9688C26.3216 30.5625 25.7969 31.0872 25.7969 31.7344C25.7969 32.3816 26.3216 32.9062 26.9688 32.9062H41.0312C41.6784 32.9062 42.2031 32.3816 42.2031 31.7344C42.2031 31.0872 41.6784 30.5625 41.0312 30.5625Z" fill="#4971FF"/>
<path d="M41.0312 35.25H26.9688C26.3216 35.25 25.7969 35.7747 25.7969 36.4219C25.7969 37.0691 26.3216 37.5938 26.9688 37.5938H41.0312C41.6784 37.5938 42.2031 37.0691 42.2031 36.4219C42.2031 35.7747 41.6784 35.25 41.0312 35.25Z" fill="#4971FF"/>
<path d="M41.0312 39.9375H26.9688C26.3216 39.9375 25.7969 40.4622 25.7969 41.1094C25.7969 41.7566 26.3216 42.2812 26.9688 42.2812H41.0312C41.6784 42.2812 42.2031 41.7566 42.2031 41.1094C42.2031 40.4622 41.6784 39.9375 41.0312 39.9375Z" fill="#4971FF"/>
<path d="M36.3438 44.625H26.9688C26.3216 44.625 25.7969 45.1497 25.7969 45.7969C25.7969 46.4441 26.3216 46.9688 26.9688 46.9688H36.3438C36.9909 46.9688 37.5156 46.4441 37.5156 45.7969C37.5156 45.1497 36.9909 44.625 36.3438 44.625Z" fill="#4971FF"/>
</g>
<defs>
<clipPath id="clip0">
<rect width="40" height="40" fill="white" transform="translate(14 14)"/>
</clipPath>
</defs>
</svg>
