<svg width="68" height="68" viewBox="0 0 68 68" fill="none" xmlns="http://www.w3.org/2000/svg">
<rect width="68" height="68" rx="5" fill="#EFF6FE"/>
<path d="M52.743 47.0375L51.4993 38.3312V21.5C51.4978 21.0032 51.2998 20.5271 50.9485 20.1758C50.5972 19.8245 50.1211 19.6265 49.6243 19.625H45.8743V15.875C45.8743 15.7092 45.8084 15.5503 45.6912 15.4331C45.574 15.3158 45.415 15.25 45.2493 15.25H22.7493C22.5835 15.25 22.4245 15.3158 22.3073 15.4331C22.1901 15.5503 22.1243 15.7092 22.1243 15.875V19.625H18.3743C17.8775 19.6265 17.4014 19.8245 17.0501 20.1758C16.6988 20.5271 16.5008 21.0032 16.4993 21.5V38.3312L15.2555 47.0375C15.2503 47.0664 15.2482 47.0957 15.2493 47.125V49C15.2508 49.4968 15.4488 49.9729 15.8001 50.3242C16.1514 50.6755 16.6275 50.8735 17.1243 50.875H22.7493V52.75H23.9993V50.25C23.9996 50.1273 23.9625 50.0074 23.893 49.9062L22.7493 48.1875V43.6875C22.7493 43.6046 22.7822 43.5251 22.8408 43.4665C22.8994 43.4079 22.9789 43.375 23.0618 43.375C23.1447 43.375 23.2241 43.4079 23.2828 43.4665C23.3414 43.5251 23.3743 43.6046 23.3743 43.6875V45.25C23.3743 45.4158 23.4401 45.5747 23.5573 45.6919C23.6745 45.8092 23.8335 45.875 23.9993 45.875C24.165 45.875 24.324 45.8092 24.4412 45.6919C24.5584 45.5747 24.6243 45.4158 24.6243 45.25V42.4375C24.6243 42.3546 24.6572 42.2751 24.7158 42.2165C24.7744 42.1579 24.8539 42.125 24.9368 42.125C25.0197 42.125 25.0991 42.1579 25.1578 42.2165C25.2164 42.2751 25.2493 42.3546 25.2493 42.4375V44.625C25.2493 44.7908 25.3151 44.9497 25.4323 45.0669C25.5495 45.1842 25.7085 45.25 25.8743 45.25C26.04 45.25 26.199 45.1842 26.3162 45.0669C26.4334 44.9497 26.4993 44.7908 26.4993 44.625V41.1875C26.4993 41.1046 26.5322 41.0251 26.5908 40.9665C26.6494 40.9079 26.7289 40.875 26.8118 40.875C26.8947 40.875 26.9741 40.9079 27.0328 40.9665C27.0914 41.0251 27.1243 41.1046 27.1243 41.1875V44.625C27.1243 44.7908 27.1901 44.9497 27.3073 45.0669C27.4245 45.1842 27.5835 45.25 27.7493 45.25C27.915 45.25 28.074 45.1842 28.1912 45.0669C28.3084 44.9497 28.3743 44.7908 28.3743 44.625V41.8125C28.3743 41.7296 28.4072 41.6501 28.4658 41.5915C28.5244 41.5329 28.6039 41.5 28.6868 41.5C28.7697 41.5 28.8491 41.5329 28.9078 41.5915C28.9664 41.6501 28.9993 41.7296 28.9993 41.8125V46.5C28.9993 46.6658 29.0651 46.8247 29.1823 46.9419C29.2995 47.0592 29.4585 47.125 29.6243 47.125C29.79 47.125 29.949 47.0592 30.0662 46.9419C30.1834 46.8247 30.2493 46.6658 30.2493 46.5V44.9375C30.2493 44.8546 30.2822 44.7751 30.3408 44.7165C30.3994 44.6579 30.4789 44.625 30.5618 44.625C30.6447 44.625 30.7241 44.6579 30.7828 44.7165C30.8414 44.7751 30.8743 44.8546 30.8743 44.9375V48.6625L29.2805 49.7312C29.1946 49.7879 29.1239 49.8648 29.0748 49.9553C29.0258 50.0458 28.9998 50.1471 28.9993 50.25V52.75H30.2493V50.875H37.7493V52.75H38.9993V50.25C38.9987 50.1471 38.9728 50.0458 38.9237 49.9553C38.8747 49.8648 38.804 49.7879 38.718 49.7312L37.1243 48.6625V44.9375C37.1243 44.8546 37.1572 44.7751 37.2158 44.7165C37.2744 44.6579 37.3539 44.625 37.4368 44.625C37.5197 44.625 37.5991 44.6579 37.6577 44.7165C37.7164 44.7751 37.7493 44.8546 37.7493 44.9375V46.5C37.7493 46.6658 37.8151 46.8247 37.9323 46.9419C38.0495 47.0592 38.2085 47.125 38.3743 47.125C38.54 47.125 38.699 47.0592 38.8162 46.9419C38.9334 46.8247 38.9993 46.6658 38.9993 46.5V41.8125C38.9993 41.7296 39.0322 41.6501 39.0908 41.5915C39.1494 41.5329 39.2289 41.5 39.3118 41.5C39.3947 41.5 39.4741 41.5329 39.5327 41.5915C39.5914 41.6501 39.6243 41.7296 39.6243 41.8125V44.625C39.6243 44.7908 39.6901 44.9497 39.8073 45.0669C39.9245 45.1842 40.0835 45.25 40.2493 45.25C40.415 45.25 40.574 45.1842 40.6912 45.0669C40.8084 44.9497 40.8743 44.7908 40.8743 44.625V41.1875C40.8743 41.1046 40.9072 41.0251 40.9658 40.9665C41.0244 40.9079 41.1039 40.875 41.1868 40.875C41.2697 40.875 41.3491 40.9079 41.4077 40.9665C41.4664 41.0251 41.4993 41.1046 41.4993 41.1875V44.625C41.4993 44.7908 41.5651 44.9497 41.6823 45.0669C41.7995 45.1842 41.9585 45.25 42.1243 45.25C42.29 45.25 42.449 45.1842 42.5662 45.0669C42.6834 44.9497 42.7493 44.7908 42.7493 44.625V42.4375C42.7493 42.3546 42.7822 42.2751 42.8408 42.2165C42.8994 42.1579 42.9789 42.125 43.0618 42.125C43.1447 42.125 43.2241 42.1579 43.2827 42.2165C43.3414 42.2751 43.3743 42.3546 43.3743 42.4375V45.25C43.3743 45.4158 43.4401 45.5747 43.5573 45.6919C43.6745 45.8092 43.8335 45.875 43.9993 45.875C44.165 45.875 44.324 45.8092 44.4412 45.6919C44.5584 45.5747 44.6243 45.4158 44.6243 45.25V43.6875C44.6243 43.6046 44.6572 43.5251 44.7158 43.4665C44.7744 43.4079 44.8539 43.375 44.9368 43.375C45.0197 43.375 45.0991 43.4079 45.1577 43.4665C45.2164 43.5251 45.2493 43.6046 45.2493 43.6875V48.1875L44.1055 49.9062C44.036 50.0074 43.999 50.1273 43.9993 50.25V52.75H45.2493V50.875H50.8743C51.3711 50.8735 51.8472 50.6755 52.1985 50.3242C52.5498 49.9729 52.7478 49.4968 52.7493 49V47.125C52.7503 47.0957 52.7482 47.0664 52.743 47.0375ZM45.8743 20.875H49.6243C49.79 20.875 49.949 20.9408 50.0662 21.0581C50.1834 21.1753 50.2493 21.3342 50.2493 21.5V37.75H48.9993V23.375C48.9983 23.0438 48.8663 22.7264 48.6321 22.4922C48.3979 22.258 48.0805 22.126 47.7493 22.125H45.8743V20.875ZM45.8743 23.375H47.7493V37.75H45.8743V23.375ZM23.3743 16.5H44.6243V37.75H23.3743V16.5ZM17.7493 21.5C17.7493 21.3342 17.8151 21.1753 17.9323 21.0581C18.0495 20.9408 18.2085 20.875 18.3743 20.875H22.1243V22.125H20.2493C19.9181 22.126 19.6007 22.258 19.3665 22.4922C19.1323 22.7264 19.0003 23.0438 18.9993 23.375V37.75H17.7493V21.5ZM22.1243 23.375V37.75H20.2493V23.375H22.1243ZM17.1243 49.625C16.9585 49.625 16.7995 49.5592 16.6823 49.4419C16.5651 49.3247 16.4993 49.1658 16.4993 49V47.75H21.4993V48.375C21.499 48.4977 21.536 48.6176 21.6055 48.7188L22.2055 49.625H17.1243ZM31.6868 49.625L31.843 49.5188C31.929 49.4621 31.9997 49.3852 32.0487 49.2947C32.0978 49.2042 32.1237 49.1029 32.1243 49V47.75H35.8743V49C35.8748 49.1029 35.9008 49.2042 35.9498 49.2947C35.9989 49.3852 36.0696 49.4621 36.1555 49.5188L36.3118 49.625H31.6868ZM44.9368 42.125C44.8232 42.1248 44.71 42.1374 44.5993 42.1625C44.5348 41.8016 44.3454 41.4749 44.0643 41.2396C43.7833 41.0042 43.4284 40.8751 43.0618 40.875C42.9482 40.8748 42.835 40.8874 42.7243 40.9125C42.6687 40.6029 42.521 40.3174 42.3005 40.0931C42.0799 39.8689 41.7969 39.7164 41.4883 39.6556C41.1797 39.5948 40.86 39.6286 40.5709 39.7525C40.2818 39.8764 40.0368 40.0846 39.868 40.35C39.6897 40.285 39.5016 40.2512 39.3118 40.25C38.8974 40.25 38.4999 40.4146 38.2069 40.7076C37.9139 41.0007 37.7493 41.3981 37.7493 41.8125V43.4062C37.6463 43.3863 37.5417 43.3758 37.4368 43.375C37.0224 43.375 36.6249 43.5396 36.3319 43.8326C36.0389 44.1257 35.8743 44.5231 35.8743 44.9375V46.5H32.1243V44.9375C32.1243 44.5231 31.9597 44.1257 31.6666 43.8326C31.3736 43.5396 30.9762 43.375 30.5618 43.375C30.4569 43.3758 30.3523 43.3863 30.2493 43.4062V41.8125C30.2493 41.3981 30.0847 41.0007 29.7916 40.7076C29.4986 40.4146 29.1012 40.25 28.6868 40.25C28.497 40.2512 28.3088 40.285 28.1305 40.35C27.9617 40.0846 27.7168 39.8764 27.4277 39.7525C27.1386 39.6286 26.8188 39.5948 26.5103 39.6556C26.2017 39.7164 25.9186 39.8689 25.6981 40.0931C25.4776 40.3174 25.3299 40.6029 25.2743 40.9125C25.1635 40.8874 25.0503 40.8748 24.9368 40.875C24.5702 40.8751 24.2153 41.0042 23.9342 41.2396C23.6532 41.4749 23.4638 41.8016 23.3993 42.1625C23.2885 42.1374 23.1753 42.1248 23.0618 42.125C22.6474 42.125 22.25 42.2896 21.9569 42.5826C21.6639 42.8757 21.4993 43.2731 21.4993 43.6875V46.5H16.593L17.668 39H50.3305L51.4055 46.5H46.4993V43.6875C46.4993 43.2731 46.3347 42.8757 46.0416 42.5826C45.7486 42.2896 45.3512 42.125 44.9368 42.125ZM51.4993 49C51.4993 49.1658 51.4334 49.3247 51.3162 49.4419C51.199 49.5592 51.04 49.625 50.8743 49.625H45.793L46.393 48.7188C46.4625 48.6176 46.4996 48.4977 46.4993 48.375V47.75H51.4993V49Z" fill="#4971FF"/>
<path d="M42.75 17.125H25.25C25.0842 17.125 24.9253 17.1908 24.8081 17.3081C24.6908 17.4253 24.625 17.5842 24.625 17.75V21.5C24.625 21.6658 24.6908 21.8247 24.8081 21.9419C24.9253 22.0592 25.0842 22.125 25.25 22.125H42.75C42.9158 22.125 43.0747 22.0592 43.1919 21.9419C43.3092 21.8247 43.375 21.6658 43.375 21.5V17.75C43.375 17.5842 43.3092 17.4253 43.1919 17.3081C43.0747 17.1908 42.9158 17.125 42.75 17.125ZM42.125 20.875H25.875V18.375H42.125V20.875Z" fill="#4971FF"/>
<path d="M32.125 24.625H25.25C25.0842 24.625 24.9253 24.6908 24.8081 24.8081C24.6908 24.9253 24.625 25.0842 24.625 25.25V30.875C24.625 31.0408 24.6908 31.1997 24.8081 31.3169C24.9253 31.4342 25.0842 31.5 25.25 31.5H32.125C32.2908 31.5 32.4497 31.4342 32.5669 31.3169C32.6842 31.1997 32.75 31.0408 32.75 30.875V25.25C32.75 25.0842 32.6842 24.9253 32.5669 24.8081C32.4497 24.6908 32.2908 24.625 32.125 24.625ZM31.5 30.25H25.875V25.875H31.5V30.25Z" fill="#4971FF"/>
<path d="M34.625 25.25H43.375V26.5H34.625V25.25Z" fill="#4971FF"/>
<path d="M34.625 27.75H43.375V29H34.625V27.75Z" fill="#4971FF"/>
<path d="M34.625 30.25H37.75V31.5H34.625V30.25Z" fill="#4971FF"/>
<path d="M39 30.25H43.375V31.5H39V30.25Z" fill="#4971FF"/>
<path d="M24.625 32.75H32.75V34H24.625V32.75Z" fill="#4971FF"/>
<path d="M34.625 32.75H43.375V34H34.625V32.75Z" fill="#4971FF"/>
<path d="M24.625 35.25H32.75V36.5H24.625V35.25Z" fill="#4971FF"/>
<path d="M34.625 35.25H39.625V36.5H34.625V35.25Z" fill="#4971FF"/>
<path d="M40.875 35.25H43.375V36.5H40.875V35.25Z" fill="#4971FF"/>
</svg>
