<svg width="14" height="14" viewBox="0 0 14 14" fill="none" xmlns="http://www.w3.org/2000/svg">
<path d="M12.25 11.375V14C12.1862 13.9635 12.0951 13.9089 11.9766 13.8359C11.8581 13.763 11.612 13.5625 11.2383 13.2344C10.8646 12.9062 10.4909 12.5234 10.1172 12.0859C9.67057 12.1953 9.21484 12.25 8.75 12.25C8.08464 12.25 7.47168 12.1816 6.91113 12.0449C6.35059 11.9082 5.89258 11.7396 5.53711 11.5391C5.18164 11.3385 4.87858 11.1152 4.62793 10.8691C4.37728 10.623 4.19954 10.3952 4.09473 10.1855C3.98991 9.97591 3.9375 9.78906 3.9375 9.625H5.25C6.42578 9.625 7.47168 9.41992 8.3877 9.00977C9.30371 8.59961 10.0306 7.99349 10.5684 7.19141C11.1061 6.38932 11.375 5.45052 11.375 4.375C13.125 5.25911 14 6.4987 14 8.09375C14 9.39714 13.4167 10.4909 12.25 11.375ZM5.25 8.75C4.78516 8.75 4.32943 8.69531 3.88281 8.58594C3.50911 9.02344 3.14453 9.40169 2.78906 9.7207C2.43359 10.0397 2.16927 10.2493 1.99609 10.3496L1.75 10.5V7.875C0.583333 6.99089 0 5.89714 0 4.59375C0 3.76432 0.234701 2.99642 0.704102 2.29004C1.1735 1.58366 1.81152 1.02539 2.61816 0.615234C3.4248 0.205078 4.30436 0 5.25684 0C6.20931 0 7.08887 0.205078 7.89551 0.615234C8.70215 1.02539 9.33789 1.58366 9.80273 2.29004C10.2676 2.99642 10.5 3.76432 10.5 4.59375C10.5 5.42318 10.263 6.1569 9.78906 6.79492C9.3151 7.43294 8.68164 7.91829 7.88867 8.25098C7.0957 8.58366 6.21615 8.75 5.25 8.75ZM5.25 0.875C4.45703 0.875 3.72559 1.02995 3.05566 1.33984C2.38574 1.64974 1.85482 2.07357 1.46289 2.61133C1.07096 3.14909 0.875 3.7347 0.875 4.36816C0.875 5.00163 1.07096 5.58724 1.46289 6.125C1.85482 6.66276 2.38574 7.08887 3.05566 7.40332C3.72559 7.71777 4.45703 7.875 5.25 7.875C6.04297 7.875 6.77441 7.71777 7.44434 7.40332C8.11426 7.08887 8.64518 6.66276 9.03711 6.125C9.42904 5.58724 9.625 5.00163 9.625 4.36816C9.625 3.7347 9.42904 3.14909 9.03711 2.61133C8.64518 2.07357 8.11426 1.64974 7.44434 1.33984C6.77441 1.02995 6.04297 0.875 5.25 0.875Z" fill="#4971FF"/>
</svg>
