<svg width="14" height="14" viewBox="0 0 14 14" fill="none" xmlns="http://www.w3.org/2000/svg">
<path opacity="0.5" d="M14 5.6H0V11.9C0 12.457 0.221249 12.9911 0.615076 13.3849C1.0089 13.7788 1.54305 14 2.1 14H11.9C12.457 14 12.9911 13.7788 13.3849 13.3849C13.7788 12.9911 14 12.457 14 11.9V5.6ZM3.5 4.2C3.31435 4.2 3.1363 4.12625 3.00503 3.99497C2.87375 3.8637 2.8 3.68565 2.8 3.5V0.7C2.8 0.514348 2.87375 0.336301 3.00503 0.205025C3.1363 0.0737498 3.31435 0 3.5 0C3.68565 0 3.8637 0.0737498 3.99497 0.205025C4.12625 0.336301 4.2 0.514348 4.2 0.7V3.5C4.2 3.68565 4.12625 3.8637 3.99497 3.99497C3.8637 4.12625 3.68565 4.2 3.5 4.2ZM10.5 4.2C10.3143 4.2 10.1363 4.12625 10.005 3.99497C9.87375 3.8637 9.8 3.68565 9.8 3.5V0.7C9.8 0.514348 9.87375 0.336301 10.005 0.205025C10.1363 0.0737498 10.3143 0 10.5 0C10.6857 0 10.8637 0.0737498 10.995 0.205025C11.1263 0.336301 11.2 0.514348 11.2 0.7V3.5C11.2 3.68565 11.1263 3.8637 10.995 3.99497C10.8637 4.12625 10.6857 4.2 10.5 4.2Z" fill="#4971FF"/>
<path d="M11.9 1.40001H11.2V3.50001C11.2 3.68566 11.1263 3.86371 10.995 3.99498C10.8637 4.12626 10.6857 4.20001 10.5 4.20001C10.3143 4.20001 10.1363 4.12626 10.005 3.99498C9.87375 3.86371 9.8 3.68566 9.8 3.50001V1.40001H4.2V3.50001C4.2 3.68566 4.12625 3.86371 3.99497 3.99498C3.8637 4.12626 3.68565 4.20001 3.5 4.20001C3.31435 4.20001 3.1363 4.12626 3.00503 3.99498C2.87375 3.86371 2.8 3.68566 2.8 3.50001V1.40001H2.1C1.54305 1.40001 1.0089 1.62126 0.615076 2.01509C0.221249 2.40891 0 2.94305 0 3.50001V5.60001H14V3.50001C14 2.94305 13.7788 2.40891 13.3849 2.01509C12.9911 1.62126 12.457 1.40001 11.9 1.40001Z" fill="#4971FF"/>
</svg>
