<svg width="13" height="11" viewBox="0 0 13 11" fill="none" xmlns="http://www.w3.org/2000/svg">
<g clip-path="url(#clip0)">
<path d="M12.8073 2.50651C13.0117 2.77865 13.0577 3.08659 12.9453 3.43034L10.8374 9.91862C10.7403 10.2242 10.5448 10.4808 10.251 10.6885C9.95718 10.8962 9.64419 11 9.31204 11H2.23716C1.84368 11 1.46426 10.8723 1.09889 10.6169C0.733522 10.3614 0.479296 10.0475 0.336215 9.67513C0.213573 9.35525 0.208463 9.05208 0.320884 8.76562C0.320884 8.74653 0.32855 8.68207 0.34388 8.57227C0.35921 8.46246 0.36943 8.37413 0.37454 8.30729C0.37965 8.2691 0.371985 8.21777 0.351545 8.15332C0.331105 8.08887 0.32344 8.04232 0.32855 8.01367C0.33877 7.96115 0.35921 7.91102 0.38987 7.86328C0.420531 7.81554 0.462689 7.75944 0.516344 7.69499C0.57 7.63053 0.612158 7.57444 0.642818 7.52669C0.76035 7.34527 0.875326 7.12684 0.987748 6.87142C1.10017 6.61599 1.17682 6.39757 1.2177 6.21615C1.23303 6.1684 1.23431 6.09679 1.22153 6.0013C1.20876 5.90582 1.20748 5.83898 1.2177 5.80078C1.23303 5.74826 1.27647 5.68142 1.34801 5.60026C1.41955 5.5191 1.46298 5.46419 1.47831 5.43555C1.58562 5.26367 1.69294 5.04405 1.80025 4.77669C1.90756 4.50933 1.97143 4.29449 1.99187 4.13216C1.99698 4.08919 1.9906 4.0128 1.97271 3.90299C1.95483 3.79319 1.9561 3.72635 1.97654 3.70247C1.99698 3.64041 2.0532 3.5676 2.14518 3.48405C2.23716 3.4005 2.29337 3.34679 2.31381 3.32292C2.4109 3.19878 2.51949 2.99707 2.63958 2.71777C2.75966 2.43848 2.82993 2.20812 2.85037 2.02669C2.85548 1.9885 2.84781 1.92763 2.82737 1.84408C2.80693 1.76053 2.80182 1.69727 2.81204 1.6543C2.82226 1.6161 2.84526 1.57313 2.88103 1.52539C2.9168 1.47765 2.96279 1.42274 3.019 1.36068C3.07521 1.29861 3.11864 1.24848 3.1493 1.21029C3.19018 1.15299 3.23234 1.08019 3.27578 0.991862C3.31921 0.903537 3.35754 0.819987 3.39075 0.741211C3.42397 0.662435 3.46485 0.576497 3.5134 0.483398C3.56194 0.390299 3.61176 0.313911 3.66287 0.254232C3.71397 0.194553 3.78167 0.138455 3.86599 0.0859375C3.95031 0.0334201 4.04229 0.00596788 4.14193 0.00358073C4.24158 0.00119358 4.36294 0.0143229 4.50603 0.0429688L4.49836 0.0644531C4.69254 0.0214844 4.82285 0 4.88928 0H10.7224C11.1006 0 11.3918 0.133681 11.5962 0.401042C11.8006 0.668403 11.8466 0.978733 11.7342 1.33203L9.63397 7.82031C9.45001 8.38846 9.26733 8.75488 9.08592 8.9196C8.90451 9.08431 8.57619 9.16667 8.10095 9.16667H1.43999C1.30202 9.16667 1.20493 9.20247 1.14871 9.27409C1.0925 9.35048 1.08995 9.45312 1.14105 9.58203C1.26369 9.91623 1.63162 10.0833 2.24482 10.0833H9.3197C9.4679 10.0833 9.61098 10.0463 9.74895 9.97233C9.88692 9.89833 9.97635 9.79926 10.0172 9.67513L12.3168 2.60677C12.3525 2.50174 12.3653 2.36567 12.3551 2.19857C12.5493 2.27018 12.7 2.37283 12.8073 2.50651ZM4.65166 2.52083C4.63122 2.5829 4.63633 2.63661 4.66699 2.68197C4.69765 2.72732 4.74875 2.75 4.82029 2.75H9.48067C9.5471 2.75 9.61226 2.72732 9.67613 2.68197C9.74001 2.63661 9.78216 2.5829 9.8026 2.52083L9.96357 2.0625C9.98401 2.00043 9.9789 1.94672 9.94824 1.90137C9.91758 1.85601 9.86648 1.83333 9.79494 1.83333H5.13456C5.06813 1.83333 5.00298 1.85601 4.9391 1.90137C4.87523 1.94672 4.83307 2.00043 4.81263 2.0625L4.65166 2.52083ZM4.01546 4.35417C3.99502 4.41623 4.00013 4.46994 4.03079 4.5153C4.06145 4.56066 4.11255 4.58333 4.18409 4.58333H8.84447C8.9109 4.58333 8.97605 4.56066 9.03993 4.5153C9.1038 4.46994 9.14596 4.41623 9.1664 4.35417L9.32737 3.89583C9.34781 3.83377 9.3427 3.78006 9.31204 3.7347C9.28138 3.68934 9.23028 3.66667 9.15874 3.66667H4.49836C4.43193 3.66667 4.36678 3.68934 4.3029 3.7347C4.23902 3.78006 4.19687 3.83377 4.17643 3.89583L4.01546 4.35417Z" fill="#4971FF"/>
</g>
<defs>
<clipPath id="clip0">
<rect width="13" height="11" fill="white"/>
</clipPath>
</defs>
</svg>
