<svg width="38" height="47" viewBox="0 0 38 47" fill="none" xmlns="http://www.w3.org/2000/svg">
<path d="M19 0L0 7.05V21.3615C0 33.229 8.09875 44.2975 19 47C29.9013 44.2975 38 33.229 38 21.3615V7.05L19 0ZM33.25 21.3615C33.25 30.7615 27.1938 39.4565 19 42.112C10.8062 39.4565 4.75 30.785 4.75 21.3615V10.1285L19 5.1465L33.25 10.1285V21.3615Z" fill="#4971FF"/>
<path d="M15.3277 24.253L12.2616 20.8462C11.8579 20.3977 11.1518 20.4062 10.7591 20.8644L9.12244 22.7738C8.77428 23.18 8.80747 23.7883 9.19776 24.1541L15.8068 30.3502C16.1953 30.7143 16.8009 30.7102 17.1844 30.3409L29.266 18.7069C29.6691 18.3186 29.6752 17.6752 29.2794 17.2794L27.6742 15.6742C27.2968 15.2968 26.6894 15.2823 26.2945 15.6414L16.7436 24.324C16.3335 24.6968 15.6984 24.6649 15.3277 24.253Z" fill="#8000FF"/>
</svg>
