<svg width="68" height="68" viewBox="0 0 68 68" fill="none" xmlns="http://www.w3.org/2000/svg">
<rect width="68" height="68" rx="5" fill="#EFF6FE"/>
<g clip-path="url(#clip0)">
<path d="M23.6624 35.0434L23.0353 38.1935L22.0371 34.9555C21.9112 34.5472 21.478 34.3185 21.0698 34.4441C20.7936 34.5293 20.6 34.7552 20.5422 35.0187L19.559 38.1965L18.9332 35.0334C18.8503 34.6143 18.4436 34.3418 18.0241 34.4246C17.605 34.5074 17.3323 34.9145 17.4152 35.3336C17.4152 35.3336 18.5564 41.0873 18.5694 41.1234C18.6983 41.483 19.0397 41.7227 19.4213 41.7227C19.4247 41.7227 19.4282 41.7227 19.4316 41.7226C19.8166 41.7182 20.157 41.47 20.2788 41.1048C20.2805 41.0995 20.2822 41.0942 20.2839 41.0889L21.2981 37.8108L22.3092 41.0903C22.3126 41.1015 22.3163 41.1126 22.3203 41.1237C22.4493 41.4831 22.7903 41.7227 23.1711 41.7227C23.1745 41.7227 23.178 41.7227 23.1814 41.7226C23.5657 41.7182 23.9057 41.4699 24.0274 41.1048C24.0376 41.0741 25.18 35.3455 25.18 35.3455C25.2634 34.9264 24.9914 34.519 24.5723 34.4356C24.153 34.3524 23.7458 34.6242 23.6624 35.0434Z" fill="#4971FF"/>
<path d="M34.9397 35.3455C35.0231 34.9265 34.7511 34.5191 34.332 34.4357C33.9129 34.3524 33.5056 34.6243 33.4221 35.0434L32.7946 38.196L31.7969 34.9559C31.6712 34.5476 31.2381 34.3186 30.8298 34.4441C30.5533 34.5293 30.3595 34.7552 30.3019 35.019L29.3183 38.1941L28.693 35.0334C28.6101 34.6142 28.2031 34.3414 27.7838 34.4246C27.3647 34.5075 27.0921 34.9146 27.175 35.3337C27.175 35.3337 28.3162 41.0874 28.3292 41.1235C28.4581 41.4829 28.7992 41.7227 29.18 41.7227C29.1834 41.7227 29.1868 41.7227 29.1901 41.7226C29.5745 41.7184 29.9145 41.4702 30.0363 41.1051C30.038 41.0998 30.0397 41.0945 30.0414 41.0892L31.057 37.8108L32.0668 41.0901C32.0702 41.1014 32.0739 41.1125 32.0779 41.1236C32.2068 41.4831 32.5482 41.7228 32.9298 41.7228C32.9332 41.7228 32.9367 41.7228 32.9401 41.7227C33.3252 41.7184 33.6655 41.4701 33.7873 41.1049C33.7973 41.0742 34.9397 35.3455 34.9397 35.3455Z" fill="#4971FF"/>
<path d="M38.9346 41.7228C38.938 41.7228 38.9414 41.7228 38.9448 41.7228C39.3256 41.7228 39.6667 41.4831 39.7956 41.1236C39.7995 41.1126 39.8033 41.1015 39.8067 41.0902L40.8165 37.8109L41.8321 41.0893C41.8337 41.0945 41.8354 41.0999 41.8372 41.1051C41.959 41.4703 42.299 41.7185 42.6834 41.7227C42.6867 41.7228 42.6901 41.7228 42.6935 41.7228C43.0743 41.7228 43.4154 41.483 43.5443 41.1235C43.5572 41.0874 44.6985 35.3338 44.6985 35.3338C44.7814 34.9146 44.5088 34.5075 44.0897 34.4247C43.6703 34.3418 43.2635 34.6144 43.1805 35.0335L42.5552 38.1942L41.5716 35.019C41.5139 34.7553 41.3201 34.5293 41.0437 34.4442C40.6352 34.3184 40.2023 34.5475 40.0766 34.956L39.0802 38.1916L38.4536 35.0435C38.3701 34.6244 37.9626 34.3526 37.5437 34.4357C37.1246 34.5191 36.8525 34.9266 36.936 35.3456C36.936 35.3456 38.0784 41.0743 38.0886 41.1049C38.2102 41.4702 38.5502 41.7185 38.9346 41.7228Z" fill="#4971FF"/>
<path d="M31.0579 44.4717C30.6306 44.4717 30.2842 44.8181 30.2842 45.2454C30.2842 45.6726 30.6306 46.0191 31.0579 46.0191H31.06C31.4874 46.0191 31.8327 45.6726 31.8327 45.2454C31.8327 44.8181 31.4852 44.4717 31.0579 44.4717Z" fill="#4971FF"/>
<path d="M53.7734 49.0003L50.1062 45.3332L51.4696 43.9698C51.6831 43.7563 51.7529 43.4381 51.6483 43.1547C51.5437 42.8715 51.2839 42.675 50.9827 42.6514L48.1157 42.4272V31.8573C48.1157 30.8739 47.3147 30.0737 46.3301 30.0737H42.5506C42.8323 29.0494 42.9748 27.9918 42.9748 26.9172C42.9748 20.346 37.6289 15 31.0579 15C24.4869 15 19.141 20.3461 19.141 26.9172C19.141 27.9939 19.2829 29.0514 19.5633 30.0737H15.7835C14.8001 30.0737 14 30.8739 14 31.8573V44.1921C14 45.1768 14.8001 45.9779 15.7835 45.9779H27.5956C28.0229 45.9779 28.3693 45.6314 28.3693 45.2042C28.3693 44.7769 28.0229 44.4305 27.5956 44.4305H15.7835C15.6556 44.4305 15.5474 44.3213 15.5474 44.1921V31.8573C15.5474 31.7294 15.6556 31.6211 15.7835 31.6211H36.9858C36.9868 31.6211 36.9878 31.6213 36.9887 31.6213C36.9899 31.6213 36.991 31.6211 36.9922 31.6211H41.4812C41.4829 31.6211 41.4846 31.6214 41.4863 31.6214C41.4883 31.6214 41.4902 31.6211 41.4922 31.6211H46.3301C46.4593 31.6211 46.5684 31.7293 46.5684 31.8573V42.3062L44.021 42.1071C43.7961 42.0894 43.5736 42.1715 43.4137 42.3313C43.2538 42.4912 43.1718 42.7132 43.1894 42.9387L43.306 44.4305H34.5202C34.0929 44.4305 33.7465 44.7769 33.7465 45.2042C33.7465 45.6314 34.0929 45.9779 34.5202 45.9779H43.427L43.7337 49.9007C43.7572 50.2018 43.9538 50.4616 44.2371 50.5662C44.5202 50.671 44.8385 50.6011 45.0521 50.3875L46.4155 49.0241L50.0826 52.6914C50.2276 52.8364 50.4244 52.918 50.6296 52.918C50.8348 52.918 51.0316 52.8364 51.1767 52.6914L53.7735 50.0945C54.0755 49.7923 54.0755 49.3024 53.7734 49.0003ZM21.1773 30.0737C20.9307 29.302 20.7767 28.5046 20.7171 27.6909H23.9635C23.9937 28.5019 24.0703 29.2988 24.1946 30.0737H21.1773ZM23.9638 26.1435H20.7172C20.833 24.5814 21.2966 23.1147 22.0303 21.8203C22.7643 22.1096 23.5715 22.3551 24.4298 22.5568C24.168 23.6928 24.0103 24.9001 23.9638 26.1435ZM22.9169 20.5015C23.9061 19.249 25.1777 18.2296 26.6347 17.5396C26.3783 17.8798 26.1342 18.2513 25.9048 18.6547C25.4885 19.3867 25.1353 20.1978 24.847 21.066C24.1615 20.9075 23.514 20.719 22.9169 20.5015ZM30.2843 30.0737H25.7645C25.6291 29.3024 25.5447 28.5053 25.512 27.6909H30.2843V30.0737ZM30.2843 26.1435H25.5112C25.5593 24.9921 25.7138 23.8866 25.9555 22.8612C27.3361 23.091 28.8046 23.2204 30.2843 23.2493V26.1435ZM30.2843 21.6995C28.9529 21.6724 27.632 21.5609 26.3893 21.3643C27.2549 18.8815 28.6705 17.0932 30.2843 16.6532V21.6995ZM31.8316 16.6532C33.4364 17.0908 34.845 18.8619 35.7119 21.3232C34.4802 21.5311 33.164 21.6544 31.8316 21.6929V16.6532ZM36.3494 30.0737H31.8316V27.6909H36.6037C36.5707 28.5027 36.4856 29.2997 36.3494 30.0737ZM31.8316 26.1435V23.2426C33.3137 23.2015 34.7791 23.0594 36.1497 22.8169C36.3975 23.8547 36.5558 24.9756 36.6046 26.1436H31.8316V26.1435ZM36.2111 18.6547C35.9817 18.2513 35.7376 17.8797 35.4812 17.5395C36.9081 18.2153 38.1569 19.2074 39.1371 20.4247C38.5562 20.6478 37.9232 20.8423 37.2499 21.0073C36.9651 20.1612 36.618 19.3704 36.2111 18.6547ZM40.9364 30.0737H37.9193C38.0445 29.2966 38.1217 28.4997 38.1521 27.6909H41.3985C41.3385 28.503 41.1839 29.3004 40.9364 30.0737ZM38.152 26.1435C38.1047 24.8778 37.9427 23.6491 37.6725 22.4955C38.5222 22.2847 39.3171 22.0301 40.0354 21.7321C40.7983 23.0479 41.2803 24.5458 41.3987 26.1435H38.152ZM50.6296 51.0501L46.9625 47.3828C46.8174 47.2378 46.6206 47.1562 46.4154 47.1562C46.2102 47.1562 46.0134 47.2378 45.8683 47.3828L45.1455 48.1058L44.8026 43.7202L49.1879 44.0631L48.465 44.7861C48.1629 45.0882 48.1629 45.5781 48.465 45.8803L52.1321 49.5475L50.6296 51.0501Z" fill="#4971FF"/>
</g>
<defs>
<clipPath id="clip0">
<rect width="40" height="40" fill="white" transform="translate(14 14)"/>
</clipPath>
</defs>
</svg>
