<svg width="68" height="68" viewBox="0 0 68 68" fill="none" xmlns="http://www.w3.org/2000/svg">
<rect width="68" height="68" rx="5" fill="#EFF6FE"/>
<path d="M51.2721 48.4142C52.7762 48.4142 54 47.1905 54 45.6863V17.9062C54 15.7523 52.2477 14 50.0938 14H17.9062C15.7523 14 14 15.7523 14 17.9062V45.6863C14 47.1905 15.2237 48.4142 16.7279 48.4142H17.5938V52.4375H14.7812C14.3498 52.4375 14 52.7873 14 53.2188C14 53.6502 14.3498 54 14.7812 54H53.2188C53.6502 54 54 53.6502 54 53.2188C54 52.7873 53.6502 52.4375 53.2188 52.4375H50.4062V48.4142H51.2721ZM15.5625 17.9062C15.5625 16.6139 16.6139 15.5625 17.9062 15.5625H50.0938C51.3861 15.5625 52.4375 16.6139 52.4375 17.9062V19.625H15.6409C15.6145 19.625 15.5883 19.6264 15.5625 19.629V17.9062ZM22.5938 52.4375H19.1562V45.4062H22.5938V52.4375ZM31.3438 52.4375H27.9062V36.7681H31.3438V52.4375ZM40.0938 52.4375H36.6562V43.375H40.0938V52.4375ZM49.625 34.0391H44.625C44.1935 34.0391 43.8438 34.3889 43.8438 34.8203V38.7655C43.8438 39.197 44.1935 39.5468 44.625 39.5468C45.0565 39.5468 45.4062 39.197 45.4062 38.7655V35.6016H48.8438V52.4375H45.4062V44.0195C45.4062 43.5881 45.0565 43.2383 44.625 43.2383C44.1935 43.2383 43.8438 43.5881 43.8438 44.0195V52.4375H41.6562V42.5938C41.6562 42.1623 41.3065 41.8125 40.875 41.8125H35.875C35.4435 41.8125 35.0938 42.1623 35.0938 42.5938V52.4375H32.9062V35.9869C32.9062 35.5555 32.5565 35.2056 32.125 35.2056H27.125C26.6935 35.2056 26.3438 35.5555 26.3438 35.9869V52.4375H24.1562V44.625C24.1562 44.1936 23.8065 43.8438 23.375 43.8438H18.375C17.9435 43.8438 17.5938 44.1936 17.5938 44.625V46.8517H16.7279C16.0852 46.8517 15.5625 46.3289 15.5625 45.6863V21.1835C15.5883 21.1861 15.6145 21.1875 15.6409 21.1875H52.4375V45.6863C52.4375 46.3289 51.9147 46.8517 51.2721 46.8517H50.4062V34.8203C50.4062 34.3889 50.0565 34.0391 49.625 34.0391Z" fill="#4971FF"/>
<path d="M48.9998 16.8125H31.3486C30.9171 16.8125 30.5674 17.1623 30.5674 17.5938C30.5674 18.0252 30.9171 18.375 31.3486 18.375H48.9998C49.4313 18.375 49.7811 18.0252 49.7811 17.5938C49.7811 17.1623 49.4313 16.8125 48.9998 16.8125Z" fill="#4971FF"/>
<path d="M22.6773 17.0414C22.532 16.8961 22.3305 16.8125 22.125 16.8125C21.9195 16.8125 21.718 16.896 21.5727 17.0414C21.4273 17.1867 21.3438 17.3883 21.3438 17.5938C21.3438 17.7992 21.4273 18.0008 21.5727 18.146C21.718 18.2914 21.9195 18.375 22.125 18.375C22.3305 18.375 22.532 18.2914 22.6773 18.146C22.8227 18.0008 22.9062 17.7992 22.9062 17.5938C22.9062 17.3883 22.8227 17.1867 22.6773 17.0414Z" fill="#4971FF"/>
<path d="M19.5523 17.0414C19.407 16.8961 19.2055 16.8125 19 16.8125C18.7945 16.8125 18.593 16.896 18.4477 17.0414C18.3023 17.1867 18.2188 17.3883 18.2188 17.5938C18.2188 17.7992 18.3023 18.0008 18.4477 18.146C18.593 18.2914 18.7945 18.375 19 18.375C19.2055 18.375 19.407 18.2914 19.5523 18.146C19.6977 18.0008 19.7812 17.7992 19.7812 17.5938C19.7812 17.3883 19.6977 17.1867 19.5523 17.0414Z" fill="#4971FF"/>
<path d="M25.8023 17.0414C25.657 16.8961 25.4563 16.8125 25.25 16.8125C25.0445 16.8125 24.843 16.896 24.6977 17.0414C24.5523 17.1867 24.4688 17.3883 24.4688 17.5938C24.4688 17.7992 24.5523 18.0008 24.6977 18.146C24.843 18.2914 25.0445 18.375 25.25 18.375C25.4555 18.375 25.657 18.2914 25.8023 18.146C25.9477 18.0008 26.0312 17.7992 26.0312 17.5938C26.0312 17.3883 25.9477 17.1867 25.8023 17.0414Z" fill="#4971FF"/>
<path d="M45.1773 40.9975C45.032 40.8514 44.8305 40.7686 44.625 40.7686C44.4195 40.7686 44.218 40.8514 44.0727 40.9975C43.9273 41.1428 43.8438 41.3443 43.8438 41.5498C43.8438 41.7553 43.9273 41.9568 44.0727 42.1021C44.218 42.2474 44.4195 42.3311 44.625 42.3311C44.8305 42.3311 45.032 42.2475 45.1773 42.1021C45.3227 41.9568 45.4062 41.7553 45.4062 41.5498C45.4062 41.3436 45.3227 41.1428 45.1773 40.9975Z" fill="#4971FF"/>
<path d="M47.1251 24.6201C45.5743 24.6201 44.3126 25.8818 44.3126 27.4326C44.3126 28.0486 44.5122 28.6186 44.8494 29.0825L39.66 34.2719C39.2572 34.049 38.7946 33.9217 38.3025 33.9217C37.8592 33.9217 37.4396 34.0252 37.0663 34.2087L31.6476 28.79C31.8705 28.3873 31.9979 27.9246 31.9979 27.4326C31.9979 25.8818 30.7362 24.6201 29.1854 24.6201C27.6345 24.6201 26.3729 25.8818 26.3729 27.4326C26.3729 27.9746 26.5274 28.4811 26.7941 28.9109L22.1806 33.5243C21.7779 33.3014 21.3152 33.1741 20.8232 33.1741C19.2724 33.1741 18.0107 34.4357 18.0107 35.9866C18.0107 37.5375 19.2724 38.7991 20.8232 38.7991C22.3741 38.7991 23.6357 37.5375 23.6357 35.9866C23.6357 35.4946 23.5084 35.0319 23.2855 34.6292L27.9541 29.9606C28.3262 30.1425 28.744 30.245 29.1854 30.245C29.6773 30.245 30.14 30.1177 30.5427 29.8948L35.9083 35.2604C35.6434 35.6893 35.49 36.1939 35.49 36.734C35.49 38.2849 36.7517 39.5465 38.3025 39.5465C39.8534 39.5465 41.115 38.2849 41.115 36.734C41.115 36.242 40.9877 35.7793 40.7648 35.3766L46.0933 30.0481C46.4131 30.1748 46.761 30.2451 47.1251 30.2451C48.676 30.2451 49.9376 28.9835 49.9376 27.4326C49.9376 25.8818 48.676 24.6201 47.1251 24.6201ZM20.8233 37.2368C20.1341 37.2368 19.5733 36.676 19.5733 35.9868C19.5733 35.2975 20.1341 34.7368 20.8233 34.7368C21.5125 34.7368 22.0733 35.2975 22.0733 35.9868C22.0733 36.676 21.5125 37.2368 20.8233 37.2368ZM29.1854 28.6826C28.4962 28.6826 27.9354 28.1218 27.9354 27.4326C27.9354 26.7434 28.4962 26.1826 29.1854 26.1826C29.8746 26.1826 30.4354 26.7434 30.4354 27.4326C30.4354 28.1218 29.8746 28.6826 29.1854 28.6826ZM38.3026 37.9842C37.6134 37.9842 37.0526 37.4234 37.0526 36.7342C37.0526 36.045 37.6134 35.4842 38.3026 35.4842C38.9918 35.4842 39.5526 36.045 39.5526 36.7342C39.5526 37.4234 38.9918 37.9842 38.3026 37.9842ZM47.1251 28.6826C46.4359 28.6826 45.8751 28.1218 45.8751 27.4326C45.8751 26.7434 46.4359 26.1826 47.1251 26.1826C47.8143 26.1826 48.3751 26.7434 48.3751 27.4326C48.3751 28.1218 47.8143 28.6826 47.1251 28.6826Z" fill="#4971FF"/>
<path d="M25.5885 24.0742C25.4424 23.9289 25.2416 23.8452 25.0361 23.8452C24.8299 23.8452 24.6283 23.9288 24.483 24.0742C24.3377 24.2194 24.2549 24.421 24.2549 24.6265C24.2549 24.8319 24.3377 25.0335 24.483 25.1788C24.6291 25.3241 24.8299 25.4077 25.0361 25.4077C25.2416 25.4077 25.4424 25.3242 25.5885 25.1788C25.7338 25.0335 25.8174 24.8319 25.8174 24.6265C25.8174 24.421 25.7338 24.2194 25.5885 24.0742Z" fill="#4971FF"/>
<path d="M22.125 23.8452H18.375C17.9435 23.8452 17.5938 24.1951 17.5938 24.6265C17.5938 25.0579 17.9435 25.4077 18.375 25.4077H22.125C22.5565 25.4077 22.9062 25.0579 22.9062 24.6265C22.9062 24.1951 22.5565 23.8452 22.125 23.8452Z" fill="#4971FF"/>
<path d="M22.125 27.5952H18.375C17.9435 27.5952 17.5938 27.9451 17.5938 28.3765C17.5938 28.8079 17.9435 29.1577 18.375 29.1577H22.125C22.5565 29.1577 22.9062 28.8079 22.9062 28.3765C22.9062 27.9451 22.5565 27.5952 22.125 27.5952Z" fill="#4971FF"/>
</svg>
